<svg version="1.1" id="Layer_1" xmlns="http://www.w3.org/2000/svg" xmlns:xlink="http://www.w3.org/1999/xlink" x="0px" y="0px"
	 width="100%" viewBox="0 0 255 198" enable-background="new 0 0 255 198" xml:space="preserve">
<path fill="#000000" opacity="1.000000" stroke="none" 
	d="
M256.000000,70.000000 
	C256.000000,112.936157 256.000000,155.872314 256.000000,199.000000 
	C200.979248,199.000000 145.958282,199.000000 90.208786,198.675690 
	C90.318352,196.434433 91.413589,194.586075 91.946838,192.587769 
	C93.616516,186.330750 95.074234,180.017181 97.011551,173.794006 
	C101.167908,173.560822 104.985176,173.574982 108.673752,172.893036 
	C116.818275,171.387238 124.897995,169.530899 133.346329,167.880859 
	C134.484131,167.632889 135.279739,167.321640 136.310608,166.977783 
	C136.545853,166.945160 136.999619,166.804733 137.340652,166.877655 
	C138.477890,166.638611 139.274078,166.326675 140.300415,165.984467 
	C140.530563,165.954208 140.969803,165.803925 141.281998,165.863068 
	C142.092117,165.620193 142.590042,165.318192 143.319946,164.989960 
	C143.551926,164.963745 144.001297,164.836960 144.343903,164.905701 
	C145.482788,164.652908 146.279053,164.331390 147.304565,163.981247 
	C147.533829,163.952621 147.970261,163.800858 148.280823,163.858124 
	C149.088882,163.615494 149.586349,163.315582 150.313873,162.984497 
	C150.543900,162.953293 150.985580,162.810150 151.296783,162.873077 
	C152.098221,162.628342 152.588455,162.320679 153.296112,161.976837 
	C153.513519,161.940659 153.927612,161.789444 154.287048,161.854874 
	C156.117630,161.297592 157.588776,160.674881 159.034363,160.034027 
	C159.008820,160.015869 158.995728,160.077179 159.343079,160.047638 
	C160.483139,159.682312 161.275864,159.346527 162.294540,158.990295 
	C162.520508,158.969833 162.955551,158.840714 163.229874,158.869125 
	C163.712875,158.608231 163.921555,158.318909 164.332062,157.995911 
	C164.533890,157.962219 164.919586,157.825455 165.298615,157.884796 
	C170.136093,156.002838 174.594543,154.061539 179.414307,152.056839 
	C183.553802,150.012527 187.331985,148.031586 191.471008,146.019272 
	C197.513031,142.962708 203.194214,139.937546 208.875412,136.912384 
	C208.572479,136.347977 208.269562,135.783569 207.966644,135.219162 
	C201.966202,138.451004 195.965759,141.682861 189.588837,144.966431 
	C184.773758,146.990067 180.335144,148.961990 175.508820,150.955963 
	C170.720337,152.634216 166.319550,154.290466 161.681702,155.990906 
	C161.444626,156.035095 160.985947,156.184250 160.651611,156.114929 
	C159.538712,156.350128 158.760162,156.654648 157.989868,156.976868 
	C157.998108,156.994583 157.982773,156.965225 157.633301,156.976379 
	C156.483688,157.312576 155.683548,157.637604 154.658722,157.994583 
	C154.434006,158.026535 154.003265,158.169830 153.660110,158.106369 
	C152.512650,158.356201 151.708344,158.669495 150.504272,158.991638 
	C133.090500,163.277206 115.992012,167.007431 98.206566,166.623810 
	C98.729111,163.414703 99.192032,160.536957 100.028893,157.772430 
	C101.924080,151.511688 104.003616,145.306747 106.476311,139.048431 
	C119.310249,139.014297 131.676331,139.048096 144.041595,138.963837 
	C145.727356,138.952347 147.409119,138.351349 149.450867,137.983398 
	C151.176926,136.211258 153.326813,134.665298 153.790771,132.717728 
	C158.036407,114.895737 162.044296,97.015953 165.929123,79.111275 
	C166.262390,77.575317 165.211349,75.739006 164.617157,73.661118 
	C153.302856,73.197258 142.174805,73.097107 131.046616,73.072739 
	C130.339752,73.071190 129.631622,73.658546 128.562622,74.026077 
	C127.163643,75.425560 125.644768,76.626373 125.188446,78.146210 
	C124.228790,81.342453 123.826775,84.706116 123.138626,88.330055 
	C123.051056,89.103264 123.020737,89.547470 122.677559,90.219658 
	C121.322517,94.858971 120.194130,99.252090 119.256783,103.685600 
	C117.519875,111.901001 115.894661,120.140022 114.196747,128.406921 
	C114.170570,128.444626 114.239792,128.504959 114.018074,128.693375 
	C113.534554,129.575562 113.272743,130.269318 112.988922,130.965179 
	C112.966896,130.967285 112.963570,131.012360 112.641388,131.167542 
	C111.117958,132.013153 109.919693,133.296524 108.715027,133.302536 
	C96.251732,133.364868 83.785919,133.077957 71.324104,133.207016 
	C66.513252,133.256836 63.761784,135.716461 62.854786,141.010376 
	C61.510960,148.853958 59.153774,156.523926 56.840256,164.147263 
	C53.380741,163.023560 50.268623,162.128510 47.243683,160.999832 
	C26.005318,153.075272 11.637528,139.181503 14.379104,114.902458 
	C14.741123,113.455940 14.783740,112.210350 14.884096,110.748993 
	C14.941836,110.533241 14.995861,110.089828 15.302666,109.915405 
	C15.772967,108.821716 15.936463,107.902443 16.060581,106.996185 
	C16.021204,107.009201 16.047527,107.087860 16.331518,106.947746 
	C16.681709,106.204994 16.747911,105.602356 16.882616,104.779999 
	C16.951120,104.560280 17.014856,104.104408 17.262257,103.997559 
	C17.599461,103.572037 17.689266,103.253365 17.851677,102.726837 
	C17.924284,102.518990 18.003729,102.085884 18.263885,101.994965 
	C18.615364,101.580017 18.706688,101.255989 18.863649,100.718155 
	C18.929289,100.504356 18.998241,100.062401 19.243320,99.964302 
	C19.579357,99.553459 19.670313,99.240715 19.839054,98.717819 
	C19.916840,98.507660 19.992390,98.065903 20.277594,97.933578 
	C20.708351,97.205803 20.853905,96.610344 21.004869,96.011520 
	C21.010281,96.008163 21.014236,95.996078 21.260464,95.916733 
	C21.597000,95.528183 21.687311,95.218971 21.933578,94.634323 
	C22.400450,93.611893 22.711363,92.864899 23.271183,92.013344 
	C23.699509,91.607971 23.878925,91.307152 24.029137,91.002548 
	C23.999933,90.998764 24.018312,91.054718 24.275215,90.970673 
	C24.621902,90.567062 24.711689,90.247490 24.870918,89.727921 
	C24.940357,89.527916 25.015369,89.111191 25.272236,89.016754 
	C25.711008,88.617836 25.892912,88.313354 26.041180,88.007744 
	C26.007540,88.006622 26.013033,88.073715 26.272228,87.995361 
	C26.706385,87.614960 26.881350,87.312904 27.028019,87.006073 
	C26.999722,87.001305 27.021648,87.054337 27.272278,86.966454 
	C27.615759,86.564491 27.708612,86.250404 27.875355,85.735115 
	C27.949242,85.533905 28.019636,85.111023 28.271704,85.013351 
	C28.695696,84.612267 28.867620,84.308861 29.015453,83.999863 
	C28.991364,83.994286 29.009039,84.040474 29.256922,83.961189 
	C29.676737,83.592987 29.848669,83.304070 30.010048,83.007423 
	C29.999495,82.999695 30.015995,83.020294 30.265259,82.954704 
	C30.677328,82.601067 30.840134,82.313026 31.012245,82.021812 
	C31.021551,82.018646 31.026445,81.999588 31.274986,81.919144 
	C31.617407,81.525742 31.711287,81.212791 32.000542,80.584412 
	C32.290344,79.254852 32.384773,78.240738 32.479198,77.226616 
	C31.575686,77.400734 30.403603,77.272240 29.811747,77.797516 
	C25.607468,81.528831 20.659048,84.809608 17.588003,89.344696 
	C12.121323,97.417458 7.833902,106.286659 2.977215,114.779259 
	C2.639435,115.369911 1.673711,115.601456 1.000000,116.000000 
	C1.000000,77.771111 1.000000,39.542213 1.000000,1.000000 
	C16.019442,1.000000 31.041063,1.000000 46.878922,1.277048 
	C42.819866,21.398651 37.897247,41.231823 33.116901,61.099224 
	C32.340405,64.326408 33.776863,66.023933 37.417213,66.028664 
	C39.026611,66.030754 40.634354,67.303810 41.793034,67.805229 
	C46.345123,67.194908 50.775639,66.308662 55.240398,66.074036 
	C61.223221,65.759621 67.232544,65.928452 73.230492,65.928886 
	C79.186272,65.929314 79.959709,67.125397 78.531578,73.167023 
	C76.275848,82.709763 73.802513,92.222992 72.097664,101.868271 
	C70.115173,113.084320 64.840843,121.013969 53.356812,123.982513 
	C52.449383,124.217079 51.709892,125.101334 49.981419,126.332497 
	C52.011803,126.693756 52.636734,126.901009 53.262047,126.902168 
	C69.257034,126.931870 85.252098,126.961731 101.247078,126.938980 
	C106.175117,126.931976 107.987328,123.568810 108.910805,119.426834 
	C110.439880,112.568726 111.848007,105.682884 113.442909,98.840393 
	C115.819809,88.642952 118.349297,78.481155 120.746109,68.288261 
	C122.099846,62.531235 120.912994,61.063568 115.058990,61.054073 
	C103.395653,61.035152 91.731689,60.977001 80.069237,61.078846 
	C76.083992,61.113651 74.126106,60.344994 75.487541,55.616665 
	C77.158699,49.812668 78.078171,43.792233 79.582680,37.629559 
	C80.068008,36.324539 80.019157,34.504066 80.562202,34.305946 
	C84.604782,32.831066 82.422867,30.295391 81.920212,27.619926 
	C83.651917,18.479687 85.325958,9.739842 87.000000,1.000000 
	C105.354225,1.000000 123.708458,1.000000 142.886261,1.257557 
	C142.813873,3.836922 141.984802,6.187483 141.002670,8.472252 
	C140.067841,10.646996 138.973206,12.753047 137.532593,14.937395 
	C125.728279,17.952782 114.340195,20.920076 102.611435,23.940132 
	C101.483292,24.321659 100.695839,24.650425 99.547623,25.005966 
	C97.454254,25.746906 95.721649,26.461069 93.629593,27.114635 
	C90.954552,28.180626 88.638954,29.307217 86.323357,30.433807 
	C86.503258,30.879515 86.683159,31.325222 86.863060,31.770927 
	C89.269638,30.864038 91.676208,29.957151 94.323746,29.009687 
	C94.564713,28.969112 95.030106,28.819944 95.371964,28.887171 
	C96.508507,28.653967 97.303185,28.353537 98.435669,28.024105 
	C101.254486,27.318235 103.712227,26.535812 106.220558,25.982862 
	C116.790779,23.652710 127.376106,21.391020 137.990326,19.512926 
	C135.015686,33.233936 132.006134,46.546188 128.997803,59.858719 
	C127.881104,64.800407 128.753922,65.950737 133.922409,65.970757 
	C145.900070,66.017143 157.878021,66.014305 169.855759,65.985962 
	C173.554855,65.977211 175.606262,67.076248 174.111237,71.266930 
	C173.625092,72.629623 173.580536,74.143982 173.257889,75.571777 
	C169.810532,90.827309 166.271606,106.063171 163.020294,121.360214 
	C162.730118,122.725471 164.279907,124.481796 165.217621,126.413635 
	C175.978973,126.843803 186.497864,126.935028 197.016846,126.948265 
	C197.705215,126.949135 198.394333,126.352692 199.459625,125.993362 
	C201.209808,124.363724 203.395798,122.969841 203.831268,121.155739 
	C208.116318,103.305168 212.079285,85.377579 216.207382,67.488853 
	C217.340134,62.580132 216.397583,61.100281 211.443527,61.076454 
	C199.968307,61.021255 188.492706,61.053410 177.017273,61.036674 
	C170.925323,61.027790 169.749969,59.529484 171.168655,53.550121 
	C172.743988,46.910641 174.333618,40.274372 175.958908,33.646976 
	C177.328339,28.062891 178.757828,22.493525 180.141418,16.994354 
	C187.025696,18.068026 193.187256,18.763054 199.230911,20.023506 
	C214.748993,23.259935 228.928696,29.086538 239.212311,42.274231 
	C240.137451,43.751892 241.058243,44.900913 242.028015,46.298378 
	C242.130905,46.706799 242.184830,46.866776 242.196243,47.263283 
	C242.313293,47.818287 242.571045,47.983692 242.987793,48.248924 
	C243.106491,48.665272 243.164413,48.828720 243.190643,49.245300 
	C243.431381,49.683399 243.703796,49.868374 243.989624,50.029411 
	C244.003021,50.005470 243.953217,50.028439 243.983978,50.440895 
	C244.406189,57.911739 244.797653,64.970123 245.123260,72.345764 
	C245.026321,73.093903 244.995239,73.524780 244.656448,74.124817 
	C244.295547,75.206795 244.242340,76.119621 244.112091,77.246620 
	C244.035049,77.460800 243.969711,77.911324 243.725281,78.001343 
	C243.387604,78.393898 243.294357,78.696426 243.125488,79.232414 
	C243.049881,79.465874 242.962341,79.948799 242.677628,80.076508 
	C242.328766,80.798492 242.264618,81.392776 242.126221,82.216232 
	C242.051956,82.445419 241.974670,82.920990 241.655731,83.082703 
	C236.184601,91.150177 231.032379,99.055923 225.576172,107.091904 
	C222.075974,110.786583 218.879761,114.351044 215.683548,117.915504 
	C215.775620,118.083931 215.867676,118.252350 215.959747,118.420776 
	C219.759338,115.219101 223.558945,112.017426 227.605560,108.556679 
	C230.666443,105.305779 233.721893,102.502640 236.239410,99.279350 
	C240.355774,94.008987 244.121902,88.465065 248.018127,83.018814 
	C248.000473,83.001091 248.038025,83.032829 248.349609,82.894547 
	C249.442764,81.187759 250.224365,79.619255 251.033005,78.050415 
	C251.060059,78.050087 251.051514,77.996651 251.331482,77.877388 
	C251.671646,77.177094 251.731842,76.596054 251.934082,75.708664 
	C253.384064,73.601540 254.692032,71.800766 256.000000,70.000000 
z"/>
<path fill="#E9891B" opacity="1.000000" stroke="none" 
	d="
M239.207947,41.945591 
	C228.928696,29.086538 214.748993,23.259935 199.230911,20.023506 
	C193.187256,18.763054 187.025696,18.068026 180.141418,16.994354 
	C178.757828,22.493525 177.328339,28.062891 175.958908,33.646976 
	C174.333618,40.274372 172.743988,46.910641 171.168655,53.550121 
	C169.749969,59.529484 170.925323,61.027790 177.017273,61.036674 
	C188.492706,61.053410 199.968307,61.021255 211.443527,61.076454 
	C216.397583,61.100281 217.340134,62.580132 216.207382,67.488853 
	C212.079285,85.377579 208.116318,103.305168 203.831268,121.155739 
	C203.395798,122.969841 201.209808,124.363724 199.045013,125.991730 
	C197.148712,125.998779 196.043564,125.966721 194.583069,125.741287 
	C184.577621,125.647514 174.927521,125.747124 165.195923,125.890610 
	C165.114410,125.934494 164.975174,126.056503 164.975174,126.056503 
	C164.279907,124.481796 162.730118,122.725471 163.020294,121.360214 
	C166.271606,106.063171 169.810532,90.827309 173.257889,75.571777 
	C173.580536,74.143982 173.625092,72.629623 174.111237,71.266930 
	C175.606262,67.076248 173.554855,65.977211 169.855759,65.985962 
	C157.878021,66.014305 145.900070,66.017143 133.922409,65.970757 
	C128.753922,65.950737 127.881104,64.800407 128.997803,59.858719 
	C132.006134,46.546188 135.015686,33.233936 138.041763,19.209137 
	C138.022125,17.294237 137.985489,16.091770 137.948837,14.889303 
	C138.973206,12.753047 140.067841,10.646996 141.002670,8.472252 
	C141.984802,6.187483 142.813873,3.836922 143.354919,1.257557 
	C161.354233,1.000000 179.708450,1.000000 198.484955,1.377375 
	C193.970779,4.193866 189.034348,6.632982 184.097916,9.072098 
	C184.189011,9.510397 184.280090,9.948696 184.371170,10.386995 
	C185.570908,10.593399 186.771484,10.983203 187.970276,10.977775 
	C199.687103,10.924730 211.029404,13.050660 222.008591,17.009827 
	C236.218857,22.134151 248.481720,29.629574 254.288757,44.646648 
	C254.402573,44.940994 255.409668,44.889919 256.000000,45.000000 
	C256.000000,53.020901 256.000000,61.041798 256.000000,69.531349 
	C254.692032,71.800766 253.384064,73.601540 251.785645,75.933014 
	C251.347275,76.974701 251.199402,77.485680 251.051514,77.996651 
	C251.051514,77.996651 251.060059,78.050087 250.714294,78.166122 
	C249.591690,79.865723 248.814850,81.449272 248.038025,83.032822 
	C248.038025,83.032829 248.000473,83.001091 247.722443,83.040314 
	C246.067581,84.382576 244.690765,85.685616 242.728363,87.542847 
	C242.409958,85.590240 242.192322,84.255615 241.974670,82.920990 
	C241.974670,82.920990 242.051956,82.445419 242.276917,81.984543 
	C242.655365,80.998711 242.808853,80.473755 242.962341,79.948799 
	C242.962341,79.948799 243.049881,79.465874 243.277344,79.068306 
	C243.700470,78.442513 243.855438,78.189377 243.969711,77.911324 
	C243.969711,77.911324 244.035049,77.460800 244.363251,77.121658 
	C244.782333,75.840233 244.873230,74.897942 244.964142,73.955650 
	C244.995239,73.524780 245.026321,73.093903 245.398499,72.198242 
	C249.561005,64.617813 247.356979,57.630714 245.232162,50.662052 
	C245.136978,50.349880 244.394302,50.235138 243.953217,50.028435 
	C243.953217,50.028439 244.003021,50.005470 243.891602,49.834084 
	C243.623856,49.414536 243.437897,49.191029 243.222321,48.992172 
	C243.164413,48.828720 243.106491,48.665272 242.907608,48.066170 
	C242.627472,47.397099 242.451508,47.195847 242.238754,47.026756 
	C242.184830,46.866776 242.130905,46.706799 242.022919,45.938232 
	C241.048538,44.201626 240.128250,43.073608 239.207947,41.945591 
z"/>
<path fill="#0492DA" opacity="1.000000" stroke="none" 
	d="
M86.531342,1.000000 
	C85.325958,9.739842 83.651917,18.479687 81.662285,27.830889 
	C77.964989,31.460573 74.583282,34.478901 71.418556,37.303566 
	C74.102089,37.494305 76.712341,37.679836 79.322586,37.865364 
	C78.078171,43.792233 77.158699,49.812668 75.487541,55.616665 
	C74.126106,60.344994 76.083992,61.113651 80.069237,61.078846 
	C91.731689,60.977001 103.395653,61.035152 115.058990,61.054073 
	C120.912994,61.063568 122.099846,62.531235 120.746109,68.288261 
	C118.349297,78.481155 115.819809,88.642952 113.442909,98.840393 
	C111.848007,105.682884 110.439880,112.568726 108.910805,119.426834 
	C107.987328,123.568810 106.175117,126.931976 101.247078,126.938980 
	C85.252098,126.961731 69.257034,126.931870 53.262047,126.902168 
	C52.636734,126.901009 52.011803,126.693756 49.981419,126.332497 
	C51.709892,125.101334 52.449383,124.217079 53.356812,123.982513 
	C64.840843,121.013969 70.115173,113.084320 72.097664,101.868271 
	C73.802513,92.222992 76.275848,82.709763 78.531578,73.167023 
	C79.959709,67.125397 79.186272,65.929314 73.230492,65.928886 
	C67.232544,65.928452 61.223221,65.759621 55.240398,66.074036 
	C50.775639,66.308662 46.345123,67.194908 41.793034,67.805229 
	C40.634354,67.303810 39.026611,66.030754 37.417213,66.028664 
	C33.776863,66.023933 32.340405,64.326408 33.116901,61.099224 
	C37.897247,41.231823 42.819866,21.398651 47.347580,1.277048 
	C60.020893,1.000000 73.041786,1.000000 86.531342,1.000000 
z"/>
<path fill="#67B72F" opacity="1.000000" stroke="none" 
	d="
M96.614082,173.725525 
	C95.074234,180.017181 93.616516,186.330750 91.946838,192.587769 
	C91.413589,194.586075 90.318352,196.434433 89.740128,198.675690 
	C77.312439,199.000000 64.624878,199.000000 51.709000,198.662247 
	C51.260445,196.681351 50.630371,194.969772 50.891331,193.406982 
	C51.986427,186.848907 53.348225,180.335373 54.845432,173.511261 
	C55.795006,170.233932 56.511497,167.250870 57.227997,164.267807 
	C59.153774,156.523926 61.510960,148.853958 62.854786,141.010376 
	C63.761784,135.716461 66.513252,133.256836 71.324104,133.207016 
	C83.785919,133.077957 96.251732,133.364868 108.715027,133.302536 
	C109.919693,133.296524 111.117958,132.013153 112.600494,131.492630 
	C112.921089,133.429382 112.960388,135.196259 112.588181,136.971634 
	C110.115707,137.330704 108.054756,137.681244 105.996918,138.293625 
	C106.002762,138.730026 106.005478,138.904587 106.008194,139.079132 
	C104.003616,145.306747 101.924080,151.511688 100.028893,157.772430 
	C99.192032,160.536957 98.729111,163.414703 97.989159,166.909973 
	C97.459297,169.627792 97.036690,171.676651 96.614082,173.725525 
z"/>
<path fill="#000000" opacity="1.000000" stroke="none" 
	d="
M54.612354,173.805527 
	C53.348225,180.335373 51.986427,186.848907 50.891331,193.406982 
	C50.630371,194.969772 51.260445,196.681351 51.240341,198.662247 
	C34.400509,199.000000 17.801020,199.000000 1.000000,199.000000 
	C1.000000,179.646240 1.000000,160.291779 1.246602,140.108185 
	C1.766940,139.465240 2.198499,139.593185 2.291818,139.845993 
	C7.630984,154.310577 18.708534,162.695480 32.589973,167.693207 
	C39.737797,170.266617 47.259563,171.801407 54.612354,173.805527 
z"/>
<path fill="#0790D6" opacity="1.000000" stroke="none" 
	d="
M54.845432,173.511261 
	C47.259563,171.801407 39.737797,170.266617 32.589973,167.693207 
	C18.708534,162.695480 7.630984,154.310577 2.291818,139.845993 
	C2.198499,139.593185 1.766940,139.465240 1.246602,139.639526 
	C1.000000,132.312424 1.000000,124.624847 1.000000,116.468636 
	C1.673711,115.601456 2.639435,115.369911 2.977215,114.779259 
	C7.833902,106.286659 12.121323,97.417458 17.588003,89.344696 
	C20.659048,84.809608 25.607468,81.528831 29.811747,77.797516 
	C30.403603,77.272240 31.575686,77.400734 32.479198,77.226616 
	C32.384773,78.240738 32.290344,79.254852 31.836266,80.743385 
	C31.267696,81.444511 31.117641,81.705109 31.026445,81.999588 
	C31.026445,81.999588 31.021551,82.018646 30.811455,82.148811 
	C30.350233,82.481865 30.155113,82.728966 30.015995,83.020294 
	C30.015995,83.020294 29.999495,82.999695 29.804859,83.139366 
	C29.354164,83.488899 29.153770,83.742714 29.009039,84.040474 
	C29.009039,84.040474 28.991364,83.994286 28.812668,84.152130 
	C28.429193,84.576988 28.224415,84.844002 28.019634,85.111023 
	C28.019636,85.111023 27.949242,85.533905 27.712818,85.898560 
	C27.270433,86.495674 27.118851,86.759377 27.021648,87.054337 
	C27.021648,87.054337 26.999722,87.001305 26.822252,87.150070 
	C26.434200,87.557137 26.223616,87.815422 26.013033,88.073715 
	C26.013033,88.073715 26.007540,88.006622 25.831524,88.158173 
	C25.442131,88.576881 25.228750,88.844040 25.015369,89.111191 
	C25.015369,89.111191 24.940357,89.527916 24.708452,89.893417 
	C24.270939,90.493744 24.118195,90.759010 24.018312,91.054718 
	C24.018312,91.054718 23.999933,90.998764 23.823511,91.155518 
	C23.438818,91.580818 23.230547,91.849358 23.022276,92.117905 
	C22.711363,92.864899 22.400450,93.611893 21.770842,94.790329 
	C21.247299,95.446587 21.101330,95.704689 21.014236,95.996078 
	C21.014236,95.996078 21.010281,96.008163 20.801720,96.222359 
	C20.392900,96.979668 20.192644,97.522789 19.992390,98.065903 
	C19.992390,98.065903 19.916840,98.507660 19.673437,98.880264 
	C19.225828,99.490570 19.081898,99.760414 18.998241,100.062401 
	C18.998241,100.062401 18.929289,100.504356 18.699471,100.888443 
	C18.260130,101.512604 18.104822,101.783722 18.003729,102.085884 
	C18.003729,102.085884 17.924284,102.518990 17.689953,102.898956 
	C17.253321,103.524521 17.106400,103.799683 17.014856,104.104408 
	C17.014856,104.104408 16.951120,104.560280 16.732306,105.018417 
	C16.358170,106.013664 16.202848,106.550758 16.047527,107.087860 
	C16.047527,107.087860 16.021204,107.009201 15.847937,107.260254 
	C15.448400,108.370811 15.222130,109.230316 14.995861,110.089828 
	C14.995861,110.089828 14.941836,110.533241 14.721344,111.066177 
	C14.353802,112.767197 14.206752,113.935287 14.059701,115.103378 
	C11.637528,139.181503 26.005318,153.075272 47.243683,160.999832 
	C50.268623,162.128510 53.380741,163.023560 56.840252,164.147263 
	C56.511497,167.250870 55.795006,170.233932 54.845432,173.511261 
z"/>
<path fill="#000000" opacity="1.000000" stroke="none" 
	d="
M256.000000,44.531342 
	C255.409668,44.889919 254.402573,44.940994 254.288757,44.646648 
	C248.481720,29.629574 236.218857,22.134151 222.008591,17.009827 
	C211.029404,13.050660 199.687103,10.924730 187.970276,10.977775 
	C186.771484,10.983203 185.570908,10.593399 184.371170,10.386995 
	C184.280090,9.948696 184.189011,9.510397 184.097916,9.072098 
	C189.034348,6.632982 193.970779,4.193866 198.953613,1.377375 
	C217.917328,1.000000 236.834641,1.000000 256.000000,1.000000 
	C256.000000,15.353276 256.000000,29.707979 256.000000,44.531342 
z"/>
<path fill="#68B72E" opacity="1.000000" stroke="none" 
	d="
M112.999695,136.963120 
	C112.960388,135.196259 112.921089,133.429382 112.922684,131.337433 
	C112.963570,131.012360 112.966896,130.967285 113.266113,130.827087 
	C113.790146,129.959595 114.014969,129.232269 114.239792,128.504959 
	C114.239792,128.504959 114.170570,128.444626 114.609123,128.505783 
	C116.275681,128.039810 118.544815,127.497627 118.537445,126.988380 
	C118.514877,125.429489 117.617859,123.883247 116.700119,121.327087 
	C119.021194,117.080254 121.852036,112.038063 124.513527,106.908012 
	C125.009483,105.952057 125.265305,104.459496 124.877098,103.529770 
	C123.375984,99.934731 121.659569,96.512260 124.617630,92.762527 
	C124.858681,92.456970 123.568886,90.943748 122.990410,89.991684 
	C123.020737,89.547470 123.051056,89.103264 123.480034,88.320618 
	C125.004257,86.926102 126.691216,86.068092 127.147224,84.775742 
	C128.378403,81.286514 129.085541,77.612373 130.469177,74.004669 
	C142.226273,74.012558 153.514816,74.027390 164.803375,74.042221 
	C165.211349,75.739006 166.262390,77.575317 165.929123,79.111275 
	C162.044296,97.015953 158.036407,114.895737 153.790771,132.717728 
	C153.326813,134.665298 151.176926,136.211258 149.058105,137.973999 
	C147.522125,137.994263 146.737015,137.984009 145.596924,137.774048 
	C134.494522,137.370621 123.747108,137.166870 112.999695,136.963120 
z"/>
<path fill="#0C8ECD" opacity="1.000000" stroke="none" 
	d="
M97.011551,173.794006 
	C97.036690,171.676651 97.459297,169.627792 98.099304,167.292755 
	C115.992012,167.007431 133.090500,163.277206 150.831421,158.986420 
	C152.373306,158.704865 153.188293,158.437347 154.003265,158.169830 
	C154.003265,158.169830 154.434006,158.026535 154.992554,157.977570 
	C156.361649,157.607483 157.172211,157.286362 157.982773,156.965225 
	C157.982773,156.965225 157.998108,156.994583 158.306503,156.979431 
	C159.405243,156.704269 160.195602,156.444260 160.985947,156.184250 
	C160.985947,156.184250 161.444626,156.035095 162.000336,156.031769 
	C163.343887,156.627441 164.131744,157.226440 164.919586,157.825455 
	C164.919586,157.825455 164.533890,157.962219 164.119812,158.105774 
	C163.434372,158.419434 163.184311,158.616562 162.955551,158.840714 
	C162.955551,158.840714 162.520508,158.969833 161.960434,159.004364 
	C160.598816,159.384995 159.797272,159.731094 158.995728,160.077179 
	C158.995728,160.077179 159.008820,160.015869 158.660843,160.022156 
	C156.851120,160.615448 155.389359,161.202454 153.927612,161.789444 
	C153.927612,161.789444 153.513519,161.940659 153.016418,162.022919 
	C152.008057,162.340149 151.496826,162.575150 150.985580,162.810150 
	C150.985580,162.810150 150.543900,162.953293 150.030655,163.023682 
	C149.001694,163.329666 148.485977,163.565262 147.970261,163.800858 
	C147.970261,163.800858 147.533829,163.952621 146.980545,163.994904 
	C145.618607,164.303787 144.809952,164.570374 144.001297,164.836960 
	C144.001297,164.836960 143.551926,164.963745 143.035873,165.029541 
	C142.003143,165.331528 141.486481,165.567734 140.969803,165.803925 
	C140.969803,165.803925 140.530563,165.954208 139.977539,165.990997 
	C138.616211,166.286758 137.807922,166.545746 136.999619,166.804733 
	C136.999619,166.804733 136.545853,166.945160 135.986832,166.985947 
	C134.619919,167.290359 133.812042,167.553986 133.004150,167.817596 
	C124.897995,169.530899 116.818275,171.387238 108.673752,172.893036 
	C104.985176,173.574982 101.167908,173.560822 97.011551,173.794006 
z"/>
<path fill="#DC8215" opacity="1.000000" stroke="none" 
	d="
M137.532593,14.937395 
	C137.985489,16.091770 138.022125,17.294237 138.007339,18.800491 
	C127.376106,21.391020 116.790779,23.652710 106.220558,25.982862 
	C103.712227,26.535812 101.254486,27.318235 98.113754,28.033089 
	C96.646057,28.320696 95.838081,28.570320 95.030106,28.819944 
	C95.030106,28.819944 94.564713,28.969112 94.220306,28.840454 
	C93.913612,28.199610 93.951332,27.687422 93.989044,27.175234 
	C95.721649,26.461069 97.454254,25.746906 99.882118,24.989622 
	C101.368958,24.593458 102.160530,24.240414 102.952110,23.887371 
	C114.340195,20.920076 125.728279,17.952782 137.532593,14.937395 
z"/>
<path fill="#67B72F" opacity="1.000000" stroke="none" 
	d="
M122.677559,90.219658 
	C123.568886,90.943748 124.858681,92.456970 124.617630,92.762527 
	C121.659569,96.512260 123.375984,99.934731 124.877098,103.529770 
	C125.265305,104.459496 125.009483,105.952057 124.513527,106.908012 
	C121.852036,112.038063 119.021194,117.080254 116.700119,121.327087 
	C117.617859,123.883247 118.514877,125.429489 118.537445,126.988380 
	C118.544815,127.497627 116.275681,128.039810 114.635300,128.468079 
	C115.894661,120.140022 117.519875,111.901001 119.256783,103.685600 
	C120.194130,99.252090 121.322517,94.858971 122.677559,90.219658 
z"/>
<path fill="#DD8521" opacity="1.000000" stroke="none" 
	d="
M241.655731,83.082703 
	C242.192322,84.255615 242.409958,85.590240 242.728363,87.542847 
	C244.690765,85.685616 246.067581,84.382576 247.740082,83.058044 
	C244.121902,88.465065 240.355774,94.008987 236.239410,99.279350 
	C233.721893,102.502640 230.666443,105.305779 227.380417,108.231079 
	C226.565567,107.763596 226.222870,107.362640 225.880173,106.961678 
	C231.032379,99.055923 236.184601,91.150177 241.655731,83.082703 
z"/>
<path fill="#198AC4" opacity="1.000000" stroke="none" 
	d="
M165.298615,157.884796 
	C164.131744,157.226440 163.343887,156.627441 162.237411,155.987564 
	C166.319550,154.290466 170.720337,152.634216 175.850616,150.998337 
	C177.404404,151.385880 178.228699,151.753052 179.052994,152.120224 
	C174.594543,154.061539 170.136093,156.002838 165.298615,157.884796 
z"/>
<path fill="#7D9899" opacity="1.000000" stroke="none" 
	d="
M79.582680,37.629559 
	C76.712341,37.679836 74.102089,37.494305 71.418556,37.303566 
	C74.583282,34.478901 77.964989,31.460573 81.604630,28.231285 
	C82.422867,30.295391 84.604782,32.831066 80.562202,34.305946 
	C80.019157,34.504066 80.068008,36.324539 79.582680,37.629559 
z"/>
<path fill="#67B72F" opacity="1.000000" stroke="none" 
	d="
M130.000610,74.011597 
	C129.085541,77.612373 128.378403,81.286514 127.147224,84.775742 
	C126.691216,86.068092 125.004257,86.926102 123.537277,87.991623 
	C123.826775,84.706116 124.228790,81.342453 125.188446,78.146210 
	C125.644768,76.626373 127.163643,75.425560 128.831848,74.033272 
	C129.641891,73.994743 129.821243,74.003166 130.000610,74.011597 
z"/>
<path fill="#3684AD" opacity="1.000000" stroke="none" 
	d="
M189.965317,144.914703 
	C195.965759,141.682861 201.966202,138.451004 207.966644,135.219162 
	C208.269562,135.783569 208.572479,136.347977 208.875412,136.912384 
	C203.194214,139.937546 197.513031,142.962708 191.290283,145.819946 
	C190.487579,145.406250 190.226456,145.160477 189.965317,144.914703 
z"/>
<path fill="#67A93C" opacity="1.000000" stroke="none" 
	d="
M145.951920,137.973755 
	C146.737015,137.984009 147.522125,137.994263 148.699982,138.013916 
	C147.409119,138.351349 145.727356,138.952347 144.041595,138.963837 
	C131.676331,139.048096 119.310249,139.014297 106.476318,139.048431 
	C106.005478,138.904587 106.002762,138.730026 106.466362,138.287842 
	C119.939095,138.004730 132.945511,137.989243 145.951920,137.973755 
z"/>
<path fill="#DD8521" opacity="1.000000" stroke="none" 
	d="
M243.983978,50.440895 
	C244.394302,50.235138 245.136978,50.349880 245.232162,50.662052 
	C247.356979,57.630714 249.561005,64.617813 245.464355,71.880974 
	C244.797653,64.970123 244.406189,57.911739 243.983978,50.440895 
z"/>
<path fill="#2189BC" opacity="1.000000" stroke="none" 
	d="
M189.588837,144.966431 
	C190.226456,145.160477 190.487579,145.406250 190.929443,145.851349 
	C187.331985,148.031586 183.553802,150.012527 179.414307,152.056839 
	C178.228699,151.753052 177.404404,151.385880 176.238312,150.976318 
	C180.335144,148.961990 184.773758,146.990067 189.588837,144.966431 
z"/>
<path fill="#76AB46" opacity="1.000000" stroke="none" 
	d="
M130.469162,74.004669 
	C129.821243,74.003166 129.641891,73.994743 129.193298,73.979126 
	C129.631622,73.658546 130.339752,73.071190 131.046616,73.072739 
	C142.174805,73.097107 153.302856,73.197258 164.617157,73.661118 
	C153.514816,74.027390 142.226273,74.012558 130.469162,74.004669 
z"/>
<path fill="#D38122" opacity="1.000000" stroke="none" 
	d="
M225.576172,107.091904 
	C226.222870,107.362640 226.565567,107.763596 227.133408,108.490158 
	C223.558945,112.017426 219.759338,115.219101 215.959747,118.420776 
	C215.867676,118.252350 215.775620,118.083931 215.683548,117.915504 
	C218.879761,114.351044 222.075974,110.786583 225.576172,107.091904 
z"/>
<path fill="#D58832" opacity="1.000000" stroke="none" 
	d="
M194.938431,125.934662 
	C196.043564,125.966721 197.148712,125.998779 198.668472,126.032471 
	C198.394333,126.352692 197.705215,126.949135 197.016846,126.948265 
	C186.497864,126.935028 175.978973,126.843803 165.217621,126.413635 
	C164.975174,126.056503 165.114410,125.934494 165.636108,125.935318 
	C175.751343,125.935646 185.344894,125.935158 194.938431,125.934662 
z"/>
<path fill="#D2811F" opacity="1.000000" stroke="none" 
	d="
M93.629593,27.114635 
	C93.951332,27.687422 93.913612,28.199610 93.979340,28.881031 
	C91.676208,29.957151 89.269638,30.864038 86.863060,31.770927 
	C86.683159,31.325222 86.503258,30.879515 86.323357,30.433807 
	C88.638954,29.307217 90.954552,28.180626 93.629593,27.114635 
z"/>
<path fill="#DD8521" opacity="1.000000" stroke="none" 
	d="
M248.349594,82.894547 
	C248.814850,81.449272 249.591690,79.865723 250.687225,78.166458 
	C250.224365,79.619255 249.442764,81.187759 248.349594,82.894547 
z"/>
<path fill="#198AC4" opacity="1.000000" stroke="none" 
	d="
M154.287048,161.854874 
	C155.389359,161.202454 156.851120,160.615448 158.686401,160.040314 
	C157.588776,160.674881 156.117630,161.297592 154.287048,161.854874 
z"/>
<path fill="#DD8521" opacity="1.000000" stroke="none" 
	d="
M239.212311,42.274231 
	C240.128250,43.073608 241.048538,44.201626 241.973938,45.689789 
	C241.058243,44.900913 240.137451,43.751892 239.212311,42.274231 
z"/>
<path fill="#DD8521" opacity="1.000000" stroke="none" 
	d="
M244.656433,74.124817 
	C244.873230,74.897942 244.782333,75.840233 244.440277,76.907486 
	C244.242340,76.119621 244.295547,75.206795 244.656433,74.124817 
z"/>
<path fill="#67B72F" opacity="1.000000" stroke="none" 
	d="
M114.018066,128.693375 
	C114.014969,129.232269 113.790146,129.959595 113.288132,130.824982 
	C113.272743,130.269318 113.534554,129.575562 114.018066,128.693375 
z"/>
<path fill="#1A8AC3" opacity="1.000000" stroke="none" 
	d="
M14.379105,114.902458 
	C14.206752,113.935287 14.353802,112.767197 14.663605,111.281929 
	C14.783740,112.210350 14.741123,113.455940 14.379105,114.902458 
z"/>
<path fill="#198AC4" opacity="1.000000" stroke="none" 
	d="
M157.633301,156.976379 
	C157.172211,157.286362 156.361649,157.607483 155.217255,157.945618 
	C155.683548,157.637604 156.483688,157.312576 157.633301,156.976379 
z"/>
<path fill="#198AC4" opacity="1.000000" stroke="none" 
	d="
M160.651611,156.114929 
	C160.195602,156.444260 159.405243,156.704269 158.298248,156.961731 
	C158.760162,156.654648 159.538712,156.350128 160.651611,156.114929 
z"/>
<path fill="#198AC4" opacity="1.000000" stroke="none" 
	d="
M153.660110,158.106369 
	C153.188293,158.437347 152.373306,158.704865 151.231201,158.977600 
	C151.708344,158.669495 152.512650,158.356201 153.660110,158.106369 
z"/>
<path fill="#198AC4" opacity="1.000000" stroke="none" 
	d="
M133.346329,167.880859 
	C133.812042,167.553986 134.619919,167.290359 135.751587,167.018555 
	C135.279739,167.321640 134.484131,167.632889 133.346329,167.880859 
z"/>
<path fill="#198AC4" opacity="1.000000" stroke="none" 
	d="
M159.343079,160.047638 
	C159.797272,159.731094 160.598816,159.384995 161.734467,159.024826 
	C161.275864,159.346527 160.483139,159.682312 159.343079,160.047638 
z"/>
<path fill="#198AC4" opacity="1.000000" stroke="none" 
	d="
M144.343903,164.905701 
	C144.809952,164.570374 145.618607,164.303787 146.751282,164.023529 
	C146.279053,164.331390 145.482788,164.652908 144.343903,164.905701 
z"/>
<path fill="#198AC4" opacity="1.000000" stroke="none" 
	d="
M137.340652,166.877655 
	C137.807922,166.545746 138.616211,166.286758 139.747406,166.021240 
	C139.274078,166.326675 138.477890,166.638611 137.340652,166.877655 
z"/>
<path fill="#1A8AC3" opacity="1.000000" stroke="none" 
	d="
M15.302666,109.915405 
	C15.222130,109.230316 15.448400,108.370811 15.887314,107.247238 
	C15.936463,107.902443 15.772967,108.821716 15.302666,109.915405 
z"/>
<path fill="#D2811F" opacity="1.000000" stroke="none" 
	d="
M102.611435,23.940132 
	C102.160530,24.240414 101.368958,24.593458 100.242874,24.962847 
	C100.695839,24.650425 101.483292,24.321659 102.611435,23.940132 
z"/>
<path fill="#D2811F" opacity="1.000000" stroke="none" 
	d="
M95.371964,28.887171 
	C95.838081,28.570320 96.646057,28.320696 97.775955,28.062088 
	C97.303185,28.353537 96.508507,28.653967 95.371964,28.887171 
z"/>
<path fill="#1A8AC3" opacity="1.000000" stroke="none" 
	d="
M16.331518,106.947746 
	C16.202848,106.550758 16.358170,106.013664 16.663801,105.238144 
	C16.747911,105.602356 16.681709,106.204994 16.331518,106.947746 
z"/>
<path fill="#198AC4" opacity="1.000000" stroke="none" 
	d="
M141.281998,165.863068 
	C141.486481,165.567734 142.003143,165.331528 142.803894,165.055756 
	C142.590042,165.318192 142.092117,165.620193 141.281998,165.863068 
z"/>
<path fill="#198AC4" opacity="1.000000" stroke="none" 
	d="
M148.280823,163.858124 
	C148.485977,163.565262 149.001694,163.329666 149.800629,163.054871 
	C149.586349,163.315582 149.088882,163.615494 148.280823,163.858124 
z"/>
<path fill="#198AC4" opacity="1.000000" stroke="none" 
	d="
M151.296783,162.873077 
	C151.496826,162.575150 152.008057,162.340149 152.798996,162.059097 
	C152.588455,162.320679 152.098221,162.628342 151.296783,162.873077 
z"/>
<path fill="#DD8521" opacity="1.000000" stroke="none" 
	d="
M251.331482,77.877388 
	C251.199402,77.485680 251.347275,76.974701 251.643616,76.239372 
	C251.731842,76.596054 251.671646,77.177094 251.331482,77.877388 
z"/>
<path fill="#DD8521" opacity="1.000000" stroke="none" 
	d="
M242.677628,80.076508 
	C242.808853,80.473755 242.655365,80.998711 242.351166,81.755363 
	C242.264618,81.392776 242.328766,80.798492 242.677628,80.076508 
z"/>
<path fill="#1A8AC3" opacity="1.000000" stroke="none" 
	d="
M20.277592,97.933578 
	C20.192644,97.522789 20.392900,96.979668 20.796307,96.225723 
	C20.853905,96.610344 20.708351,97.205803 20.277592,97.933578 
z"/>
<path fill="#198AC4" opacity="1.000000" stroke="none" 
	d="
M163.229874,158.869125 
	C163.184311,158.616562 163.434372,158.419434 163.917984,158.139465 
	C163.921555,158.318909 163.712875,158.608231 163.229874,158.869125 
z"/>
<path fill="#1A8AC3" opacity="1.000000" stroke="none" 
	d="
M17.262257,103.997559 
	C17.106400,103.799683 17.253321,103.524521 17.617344,103.106812 
	C17.689266,103.253365 17.599461,103.572037 17.262257,103.997559 
z"/>
<path fill="#1A8AC3" opacity="1.000000" stroke="none" 
	d="
M18.263885,101.994965 
	C18.104822,101.783722 18.260130,101.512604 18.633831,101.102242 
	C18.706688,101.255989 18.615364,101.580017 18.263885,101.994965 
z"/>
<path fill="#1A8AC3" opacity="1.000000" stroke="none" 
	d="
M19.243320,99.964302 
	C19.081898,99.760414 19.225828,99.490570 19.595652,99.090424 
	C19.670313,99.240715 19.579357,99.553459 19.243320,99.964302 
z"/>
<path fill="#DD8521" opacity="1.000000" stroke="none" 
	d="
M242.196243,47.263283 
	C242.451508,47.195847 242.627472,47.397099 242.846832,47.813263 
	C242.571045,47.983692 242.313293,47.818287 242.196243,47.263283 
z"/>
<path fill="#1A8AC3" opacity="1.000000" stroke="none" 
	d="
M21.260464,95.916733 
	C21.101330,95.704689 21.247299,95.446587 21.614883,95.065765 
	C21.687311,95.218971 21.597000,95.528183 21.260464,95.916733 
z"/>
<path fill="#DD8521" opacity="1.000000" stroke="none" 
	d="
M243.190643,49.245300 
	C243.437897,49.191029 243.623856,49.414536 243.878204,49.858025 
	C243.703796,49.868374 243.431381,49.683399 243.190643,49.245300 
z"/>
<path fill="#1A8AC3" opacity="1.000000" stroke="none" 
	d="
M23.271183,92.013344 
	C23.230547,91.849358 23.438818,91.580818 23.852715,91.159302 
	C23.878925,91.307152 23.699509,91.607971 23.271183,92.013344 
z"/>
<path fill="#1A8AC3" opacity="1.000000" stroke="none" 
	d="
M25.272236,89.016754 
	C25.228750,88.844040 25.442131,88.576881 25.865164,88.159302 
	C25.892912,88.313354 25.711008,88.617836 25.272236,89.016754 
z"/>
<path fill="#DD8521" opacity="1.000000" stroke="none" 
	d="
M243.725281,78.001343 
	C243.855438,78.189377 243.700470,78.442513 243.352966,78.834846 
	C243.294357,78.696426 243.387604,78.393898 243.725281,78.001343 
z"/>
<path fill="#1A8AC3" opacity="1.000000" stroke="none" 
	d="
M24.275215,90.970673 
	C24.118195,90.759010 24.270939,90.493744 24.639011,90.093414 
	C24.711689,90.247490 24.621902,90.567062 24.275215,90.970673 
z"/>
<path fill="#1A8AC3" opacity="1.000000" stroke="none" 
	d="
M31.274986,81.919144 
	C31.117641,81.705109 31.267696,81.444511 31.640890,81.058823 
	C31.711287,81.212791 31.617407,81.525742 31.274986,81.919144 
z"/>
<path fill="#1A8AC3" opacity="1.000000" stroke="none" 
	d="
M30.265259,82.954704 
	C30.155113,82.728966 30.350233,82.481865 30.802147,82.151978 
	C30.840134,82.313026 30.677328,82.601067 30.265259,82.954704 
z"/>
<path fill="#1A8AC3" opacity="1.000000" stroke="none" 
	d="
M29.256922,83.961189 
	C29.153770,83.742714 29.354164,83.488899 29.815413,83.147095 
	C29.848669,83.304070 29.676737,83.592987 29.256922,83.961189 
z"/>
<path fill="#1A8AC3" opacity="1.000000" stroke="none" 
	d="
M28.271702,85.013351 
	C28.224415,84.844002 28.429193,84.576988 28.836758,84.157707 
	C28.867620,84.308861 28.695696,84.612267 28.271702,85.013351 
z"/>
<path fill="#1A8AC3" opacity="1.000000" stroke="none" 
	d="
M27.272278,86.966454 
	C27.118851,86.759377 27.270433,86.495674 27.638929,86.099777 
	C27.708612,86.250404 27.615759,86.564491 27.272278,86.966454 
z"/>
<path fill="#1A8AC3" opacity="1.000000" stroke="none" 
	d="
M26.272228,87.995361 
	C26.223616,87.815422 26.434200,87.557137 26.850548,87.154846 
	C26.881350,87.312904 26.706385,87.614960 26.272228,87.995361 
z"/>
<path fill="#E5800D" opacity="1.000000" stroke="none" 
	d="
M194.583069,125.741287 
	C185.344894,125.935158 175.751343,125.935646 165.717621,125.891434 
	C174.927521,125.747124 184.577621,125.647514 194.583069,125.741287 
z"/>
<path fill="#5DB322" opacity="1.000000" stroke="none" 
	d="
M145.596924,137.774063 
	C132.945511,137.989243 119.939095,138.004730 106.463242,138.026001 
	C108.054756,137.681244 110.115707,137.330704 112.588181,136.971634 
	C123.747108,137.166870 134.494522,137.370621 145.596924,137.774063 
z"/>
</svg>