<svg version="1.1" id="Layer_1" xmlns="http://www.w3.org/2000/svg" xmlns:xlink="http://www.w3.org/1999/xlink" x="0px" y="0px"
	 width="100%" viewBox="0 0 358 156" enable-background="new 0 0 358 156" xml:space="preserve">
<path fill="#FEFDFD" opacity="1.000000" stroke="none" 
	d="
M266.000000,157.000000 
	C177.333359,157.000000 89.166710,157.000000 1.000047,157.000000 
	C1.000031,105.000031 1.000031,53.000069 1.000016,1.000075 
	C120.333275,1.000050 239.666550,1.000050 358.999878,1.000025 
	C358.999908,52.999924 358.999908,104.999847 358.999939,156.999878 
	C328.166656,157.000000 297.333344,157.000000 266.000000,157.000000 
M36.146294,26.142197 
	C35.438446,22.778885 34.730598,19.415575 33.395386,15.655513 
	C32.227894,15.151402 31.060400,14.647292 29.907764,14.075587 
	C29.907764,14.075587 29.839386,14.086268 30.105433,13.655848 
	C30.114452,13.487421 30.123470,13.318994 30.691902,13.030384 
	C30.329460,12.277977 29.974991,11.521589 29.601997,10.774449 
	C29.314651,10.198869 29.004030,9.634907 28.703756,9.065779 
	C28.663160,9.225848 28.638092,9.518990 28.579615,9.525814 
	C27.831709,9.613079 26.580587,9.962605 26.402744,9.670293 
	C23.961931,5.658441 21.965162,8.118221 20.621008,10.309498 
	C18.758472,13.345854 20.979147,14.636060 23.567163,15.675241 
	C25.804626,16.573666 27.896976,17.833492 29.993904,19.655727 
	C30.098488,22.098473 30.203074,24.541218 30.180689,27.710728 
	C30.428122,28.896568 30.675552,30.082407 30.884109,31.889893 
	C30.897316,32.507748 30.910522,33.125607 30.063595,33.742622 
	C28.069288,33.745007 26.074980,33.747391 23.894997,33.085613 
	C22.017336,30.925240 20.139677,28.764866 17.785572,26.056309 
	C17.712320,27.531662 16.961647,29.574165 17.663271,30.750284 
	C20.956636,36.270885 19.984364,44.848888 28.689720,46.620251 
	C28.902832,46.663620 28.950455,47.520283 28.888256,48.727913 
	C28.946512,49.475868 29.004770,50.223824 28.869581,51.663544 
	C29.164207,52.490238 29.458832,53.316929 29.420935,54.888111 
	C29.301022,62.919819 29.181107,70.951523 28.921280,79.909920 
	C29.043375,84.631950 29.165468,89.353973 29.261826,94.846199 
	C29.289341,95.872925 29.316856,96.899651 29.088480,98.704468 
	C29.258846,100.540283 29.429214,102.376099 29.607220,105.121094 
	C29.824383,118.099953 30.041544,131.078812 30.158405,144.865356 
	C29.877831,147.945358 30.234335,150.949966 34.097454,150.986511 
	C38.623116,151.029312 36.647758,147.339066 36.947399,145.020004 
	C36.988529,144.701675 36.867115,144.362350 36.954712,143.496017 
	C36.724735,143.022232 36.494759,142.548447 36.892277,141.613586 
	C37.306263,140.218201 38.064960,138.826035 38.078037,137.426910 
	C38.160164,128.639130 38.076332,119.849785 38.712189,110.699219 
	C39.062302,106.790314 39.412415,102.881416 39.897243,98.049423 
	C40.244839,88.509880 40.638466,78.971565 40.891880,69.429520 
	C40.931244,67.947273 40.329762,66.447998 40.004089,64.063934 
	C40.046322,61.110130 40.088551,58.156322 40.834717,54.791862 
	C41.247055,51.234592 41.659397,47.677322 42.009605,44.656063 
	C46.520767,42.388905 52.268742,43.841915 54.751106,37.969196 
	C55.162361,37.681149 55.573616,37.393105 56.589546,37.173717 
	C56.963142,36.531868 57.336735,35.890018 58.470833,35.033676 
	C60.359070,33.399185 62.247307,31.764692 64.735962,29.820972 
	C68.273254,24.846355 72.009972,19.952955 72.048462,13.214913 
	C67.686920,17.143414 63.788647,20.825706 59.692272,24.272564 
	C57.624516,26.012468 55.197979,27.325987 52.150879,28.910051 
	C47.122520,30.242622 42.094158,31.575193 37.067078,32.290947 
	C37.067413,31.881485 37.067753,31.472023 37.210606,30.336546 
	C36.871826,29.221645 36.533043,28.106745 36.146294,26.142197 
M125.134262,118.042526 
	C123.524887,117.935005 121.915512,117.827477 119.826714,117.687927 
	C119.826714,114.649857 119.915741,111.869904 119.799591,109.098549 
	C119.699974,106.721443 119.365662,104.354172 119.135132,101.982544 
	C118.532959,102.061111 117.930779,102.139679 117.328606,102.218239 
	C117.328606,108.024796 117.328606,113.831345 117.328606,120.110741 
	C120.448021,119.945152 123.212311,119.798416 126.764191,119.778008 
	C127.872177,119.175598 129.013184,118.625938 130.080109,117.957947 
	C131.544128,117.041344 132.832169,115.626930 134.412064,115.163116 
	C136.761520,114.473373 138.596237,115.446869 139.037811,118.179787 
	C139.219070,119.301651 139.525681,120.403252 139.775284,121.514069 
	C140.626297,120.855896 141.477325,120.197723 142.328354,119.539551 
	C140.716278,114.808807 139.216797,110.034645 137.419861,105.375191 
	C136.915405,104.067101 135.536560,103.096237 134.558762,101.970680 
	C133.620316,103.148201 132.430801,104.203972 131.789795,105.525742 
	C129.742645,109.746910 127.899101,114.066826 125.134262,118.042526 
M127.556084,62.501427 
	C127.556084,68.591103 127.556084,74.680779 127.556084,80.760635 
	C130.708893,80.760635 133.138458,80.760635 136.012238,80.760635 
	C136.012238,75.774422 136.012238,71.015259 136.012238,66.482117 
	C140.519684,65.082748 142.942947,66.326836 144.094589,70.638901 
	C145.028503,74.135742 146.691544,77.437836 148.016449,80.788971 
	C150.862671,80.788971 153.462875,80.788971 156.793610,80.788971 
	C154.454575,75.256401 152.295258,70.148941 150.166702,65.114220 
	C155.999771,61.185570 157.960815,57.312462 156.640656,52.695007 
	C155.337906,48.138485 151.411148,45.705933 144.763489,45.578861 
	C139.161819,45.471783 133.556458,45.556824 127.556129,45.556824 
	C127.556129,51.252693 127.556129,56.378925 127.556084,62.501427 
M219.840210,55.539810 
	C219.840210,63.962788 219.840210,72.385765 219.840210,80.730820 
	C222.975281,80.730820 225.394547,80.730820 228.271164,80.730820 
	C228.271164,75.717407 228.271164,70.970329 228.271164,66.270546 
	C234.367508,65.835052 234.363556,65.836594 236.276871,70.733604 
	C236.759537,71.968933 237.300522,73.181709 237.773499,74.420578 
	C240.474854,81.496132 240.470627,81.497749 248.981415,80.626305 
	C246.766327,75.377815 244.607422,70.262489 242.482544,65.227730 
	C248.516769,60.850735 250.354782,56.946590 248.800247,52.190388 
	C247.433197,48.007786 243.158646,45.659702 236.483658,45.572853 
	C231.036087,45.501972 225.586853,45.558434 219.840210,45.558434 
	C219.840210,48.923145 219.840210,51.740578 219.840210,55.539810 
M68.828888,77.345634 
	C68.153587,72.396950 69.494522,68.268936 74.106079,65.059837 
	C75.776611,68.305016 77.450981,71.498032 79.071579,74.718102 
	C82.547478,81.624619 82.536118,81.630341 91.389915,80.557770 
	C88.009361,74.128860 84.894905,67.768616 81.352516,61.656384 
	C79.617439,58.662605 79.947823,56.624592 82.292908,54.268158 
	C84.769211,51.779884 86.899727,48.947487 89.365929,46.048378 
	C83.663498,44.533955 80.142403,46.126583 77.373344,50.511440 
	C75.173859,53.994350 72.246620,57.017681 68.715378,61.394058 
	C68.715378,55.193161 68.715378,50.611893 68.715378,45.827301 
	C65.758865,45.827301 63.182148,45.827301 60.538406,45.827301 
	C60.538406,57.654072 60.538406,69.186638 60.538406,82.077621 
	C63.345066,79.244553 67.732254,84.031448 68.828888,77.345634 
M279.049927,80.938431 
	C281.518585,80.938431 283.987213,80.938431 287.015900,80.938431 
	C283.587921,71.275246 280.330841,62.086006 277.068085,52.898766 
	C274.377838,45.323467 274.374847,45.323090 266.473480,45.581268 
	C266.144348,45.592026 265.817627,45.675987 265.087158,45.787067 
	C260.989960,57.227497 256.829926,68.843430 252.536942,80.830582 
	C255.333374,80.830582 257.460754,80.830582 259.759644,80.830582 
	C260.412567,79.169807 260.963684,77.440552 261.767303,75.837936 
	C262.310913,74.753868 263.153839,73.055672 263.959625,72.998619 
	C267.587372,72.741753 271.451141,72.308342 274.809143,73.326363 
	C276.343811,73.791626 276.908142,77.462906 277.907349,79.682495 
	C278.043610,79.985184 278.149475,80.301559 279.049927,80.938431 
M338.766266,61.735451 
	C337.239319,57.537888 335.471069,53.408058 334.267426,49.119743 
	C333.417816,46.092842 331.761627,45.599396 328.925781,45.424442 
	C325.004700,45.182537 323.106232,46.327122 321.847992,50.261311 
	C318.598999,60.420082 314.784241,70.397888 311.148865,80.578407 
	C318.087280,81.343246 318.260284,81.400108 319.985901,76.149551 
	C320.876495,73.439774 322.271942,72.477341 325.016205,72.781647 
	C326.984558,72.999908 329.078827,72.482277 330.962402,72.935333 
	C332.404266,73.282150 334.247742,74.345352 334.803833,75.586632 
	C337.616211,81.864471 337.690247,82.017181 345.260223,80.240448 
	C343.170258,74.302643 341.090515,68.393822 338.766266,61.735451 
M182.189194,72.499260 
	C178.573212,69.201363 177.851303,73.754791 175.707260,74.464630 
	C178.322937,81.293251 190.928848,82.725784 197.326782,80.372993 
	C202.049896,78.636108 204.852173,75.269997 204.679108,70.239197 
	C204.515869,65.493591 201.920731,62.178905 197.159775,60.809742 
	C193.969376,59.892239 190.703049,59.119362 187.678009,57.804737 
	C186.462234,57.276386 184.973541,55.367069 185.111343,54.276020 
	C185.260818,53.092575 187.211670,51.185192 188.286789,51.243942 
	C191.880142,51.440323 195.433136,52.374771 200.156921,53.237511 
	C200.411163,53.040607 201.827667,51.943565 203.243820,50.846806 
	C199.094833,45.508251 191.888596,43.512444 185.193115,45.653004 
	C179.778900,47.383938 176.873077,50.821468 176.835007,55.540451 
	C176.797226,60.223827 179.649475,63.816696 184.994720,65.594505 
	C187.829025,66.537193 190.836060,67.034019 193.556732,68.213013 
	C194.856339,68.776199 196.701630,70.743027 196.473846,71.572823 
	C196.087357,72.980652 194.204010,75.030533 193.039444,74.973701 
	C189.590652,74.805389 186.185638,73.739891 182.189194,72.499260 
M114.376724,66.142654 
	C115.169228,64.376640 115.961731,62.610630 117.111374,60.048779 
	C112.148621,60.048779 108.560638,60.048779 104.725647,60.048779 
	C104.725647,57.075241 104.725647,54.514664 104.725647,51.246361 
	C110.534225,51.246361 116.072670,51.246361 121.874039,51.246361 
	C121.749115,48.954967 121.663841,47.390701 121.580940,45.870049 
	C112.849121,45.870049 104.603188,45.870049 96.000107,45.870049 
	C96.000107,51.958336 96.000107,57.755066 96.000107,63.551800 
	C96.000107,69.300461 96.000107,75.049126 96.000107,80.688820 
	C105.202927,80.688820 113.619980,80.688820 122.207291,80.688820 
	C122.106133,78.614555 122.020622,76.861206 121.914696,74.689102 
	C115.990784,74.689102 110.412605,74.689102 104.737495,74.689102 
	C104.737495,71.667397 104.737495,69.090736 104.737495,66.152596 
	C107.839371,66.152596 110.637299,66.152596 114.376724,66.142654 
M306.455139,48.164391 
	C305.043060,42.724239 301.194489,46.791218 298.175964,45.520580 
	C298.175964,52.592941 298.176270,59.050514 298.175903,65.508087 
	C298.175446,73.838776 298.175201,73.838776 290.250610,74.766136 
	C290.250610,76.659752 290.250610,78.564529 290.250610,80.570549 
	C291.537811,80.802139 292.500916,81.014008 293.474915,81.144684 
	C303.169556,82.445480 306.436981,79.649635 306.453918,70.030647 
	C306.466248,63.037048 306.456268,56.043400 306.455139,48.164391 
M163.963943,45.543812 
	C163.360733,46.682388 162.296890,47.797432 162.237305,48.963787 
	C162.024979,53.119209 162.154190,57.292088 162.154160,61.458359 
	C162.154144,67.893387 162.154144,74.328407 162.154144,80.799911 
	C165.374527,80.799911 167.818848,80.799911 170.542450,80.799911 
	C170.542450,69.030907 170.542450,57.490219 170.542450,45.517345 
	C168.439178,45.517345 166.635864,45.517345 163.963943,45.543812 
M256.049072,106.505188 
	C254.598984,110.847679 253.148895,115.190170 251.698807,119.532661 
	C252.166367,119.886841 252.633942,120.241020 253.101501,120.595200 
	C255.030289,116.271240 257.701202,113.565773 262.067505,115.284294 
	C263.406372,117.135376 264.543823,118.707939 265.681274,120.280502 
	C266.171967,119.986076 266.662659,119.691650 267.153351,119.397224 
	C265.523193,114.789314 263.994324,110.141434 262.201050,105.597931 
	C261.665039,104.239967 260.389435,103.173935 259.452698,101.974159 
	C258.398224,103.234360 257.343750,104.494568 256.049072,106.505188 
M304.967346,105.415779 
	C303.313507,110.129021 301.659698,114.842262 300.005859,119.555504 
	C300.507416,119.801025 301.008972,120.046539 301.510529,120.292061 
	C302.646454,118.596527 303.782349,116.900986 304.620148,115.650429 
	C309.980347,112.836693 311.833374,117.295639 314.856812,120.086876 
	C313.861420,114.609360 312.239807,109.703392 310.429016,104.868271 
	C310.023071,103.784363 308.954895,102.948494 308.191559,101.998451 
	C307.195923,102.890366 306.200287,103.782288 304.967346,105.415779 
M328.300262,112.754349 
	C327.596436,115.028931 326.892639,117.303513 326.188812,119.578102 
	C326.610626,119.807320 327.032440,120.036545 327.454254,120.265762 
	C328.595825,118.617348 329.737366,116.968941 330.422607,115.979439 
	C336.025970,112.524544 337.721375,117.325981 340.916565,119.928558 
	C339.611572,113.872566 337.645874,108.259010 335.454712,102.734901 
	C335.386841,102.563789 332.224457,102.920815 331.805084,103.716751 
	C330.430298,106.325996 329.656433,109.251862 328.300262,112.754349 
M220.776306,105.932083 
	C217.605240,101.871559 213.533493,100.748528 209.555603,102.837296 
	C205.831467,104.792816 204.335846,110.175629 206.030350,115.202568 
	C207.583496,119.810204 211.155716,120.512032 215.245102,119.916481 
	C220.427200,119.161789 222.683105,113.823685 220.776306,105.932083 
M107.084000,119.971230 
	C112.692497,117.921593 114.832260,113.722626 113.270599,107.830963 
	C112.014839,103.093361 108.911392,101.180862 103.872223,102.039223 
	C99.669319,102.755135 96.980743,106.747681 97.290276,111.813431 
	C97.634773,117.451492 100.197639,119.797096 107.084000,119.971230 
M161.333511,114.517487 
	C160.750793,112.887184 159.188644,111.848114 161.161255,109.482704 
	C163.854660,106.252991 161.691589,102.477226 157.470444,102.030273 
	C155.548096,101.826714 153.586273,101.995682 151.025070,101.995682 
	C151.299301,108.352455 150.582367,114.189606 151.417984,119.940842 
	C152.087982,119.964203 152.757980,119.987556 153.427979,120.010910 
	C153.723648,117.436989 154.019302,114.863068 154.314957,112.289146 
	C154.709641,112.051659 155.104309,111.814171 155.498993,111.576683 
	C157.702484,114.450356 159.905991,117.324036 162.109497,120.197708 
	C162.457550,119.901947 162.805603,119.606186 163.153656,119.310432 
	C162.658325,117.925598 162.163010,116.540764 161.333511,114.517487 
M231.051361,105.754219 
	C231.051361,110.506935 231.051361,115.259651 231.051361,120.012367 
	C231.808548,120.032417 232.565735,120.052460 233.322937,120.072510 
	C233.684525,117.429359 234.046127,114.786209 234.407730,112.143059 
	C234.845367,111.957947 235.282990,111.772827 235.720627,111.587715 
	C237.796494,114.468376 239.872360,117.349037 241.948242,120.229698 
	C242.307877,119.975464 242.667511,119.721230 243.027145,119.466995 
	C242.779190,118.571098 242.548737,117.669907 242.280029,116.780266 
	C241.432098,113.972748 238.683731,111.478912 241.705215,108.075104 
	C242.268494,107.440529 240.227158,102.800156 238.904251,102.548256 
	C236.384277,102.068443 232.180969,99.338516 231.051361,105.754219 
M272.813019,116.293961 
	C272.296295,111.521843 271.779541,106.749733 271.262817,101.977615 
	C270.526428,102.010338 269.790009,102.043060 269.053619,102.075790 
	C269.053619,105.851395 268.915131,109.633438 269.090240,113.400902 
	C269.289215,117.680847 271.451508,120.074142 276.016968,120.074532 
	C280.643005,120.074928 282.618011,117.488983 282.900146,113.307350 
	C283.100525,110.337250 283.034821,107.339172 282.895844,104.362541 
	C282.856262,103.514641 282.144775,102.698112 281.741425,101.867203 
	C281.171753,101.952621 280.602051,102.038048 280.032379,102.123474 
	C280.032379,105.617767 280.108551,109.114128 280.013916,112.605850 
	C279.882843,117.442375 278.133606,118.533676 272.813019,116.293961 
M200.416885,107.994087 
	C201.746231,106.255974 203.075592,104.517868 204.404938,102.779755 
	C203.953079,102.375793 203.501221,101.971832 203.049362,101.567871 
	C200.870148,103.876289 198.690918,106.184708 196.324631,108.691269 
	C195.997375,106.210037 195.721039,104.114845 195.368210,101.439682 
	C191.999207,105.162788 192.305008,117.986816 195.724655,120.138351 
	C195.864731,117.498657 195.989426,115.148788 196.133820,112.427872 
	C198.891006,115.345230 201.313843,117.908829 203.736694,120.472427 
	C204.157715,120.056534 204.578751,119.640633 204.999771,119.224739 
	C203.556519,117.238579 201.882858,115.373215 200.754990,113.221733 
	C200.059921,111.895859 200.197586,110.133438 200.416885,107.994087 
M61.241314,119.767059 
	C61.630619,117.442673 62.019924,115.118286 62.425789,112.695038 
	C68.797516,119.438408 68.797516,119.438408 70.923569,119.226799 
	C68.797874,116.199974 66.732185,113.258598 64.743294,110.426567 
	C66.818413,107.603615 68.603500,105.175217 70.388596,102.746819 
	C70.023552,102.405441 69.658508,102.064064 69.293465,101.722687 
	C68.189697,102.696800 67.023232,103.609787 65.998451,104.660904 
	C64.787750,105.902725 63.699474,107.263901 62.310440,108.857498 
	C61.969349,106.176346 61.701607,104.071777 61.331932,101.165970 
	C58.449898,104.942169 58.318100,116.339661 61.241314,119.767059 
M180.585007,119.383789 
	C188.693542,111.016167 176.797485,110.753647 174.649368,105.279877 
	C177.373215,104.850189 179.632599,104.493767 181.891968,104.137344 
	C181.935226,103.710625 181.978485,103.283905 182.021729,102.857193 
	C180.121170,102.602821 178.075912,101.804413 176.364075,102.259682 
	C174.894791,102.650467 172.921371,104.377480 172.777512,105.689697 
	C172.603561,107.276688 173.884460,109.230042 174.990631,110.677124 
	C175.718369,111.629158 177.443100,111.763763 178.363602,112.640198 
	C179.190323,113.427361 180.151398,114.901093 179.913467,115.754021 
	C179.657837,116.670395 178.159561,117.563217 177.048386,117.837273 
	C175.610489,118.191910 174.018997,117.923759 172.493652,117.923759 
	C172.479752,118.527115 172.465851,119.130463 172.451950,119.733818 
	C174.916290,119.733818 177.380615,119.733818 180.585007,119.383789 
M324.028076,103.416130 
	C323.075134,105.280754 322.122192,107.145378 321.029144,109.284157 
	C319.186218,106.475685 317.631989,104.107162 316.077759,101.738647 
	C315.723846,101.966476 315.369904,102.194305 315.015991,102.422134 
	C316.936493,108.273598 318.857025,114.125061 320.734863,119.846451 
	C322.797882,113.840477 324.771790,108.093994 326.928192,101.816223 
	C325.758453,102.247818 325.065033,102.503662 324.028076,103.416130 
M82.055099,118.017090 
	C80.280563,118.017090 78.506020,118.017090 76.678146,118.017090 
	C76.678146,115.682930 76.678146,113.976257 76.678146,112.317139 
	C78.894844,112.028557 80.722969,111.790565 82.551094,111.552567 
	C82.541397,111.189308 82.531700,110.826042 82.522003,110.462784 
	C80.556305,110.168999 78.590607,109.875221 76.542091,109.569061 
	C76.542091,107.723091 76.542091,106.128952 76.542091,104.339668 
	C79.019775,104.073547 81.267700,103.832108 83.515633,103.590668 
	C83.472275,103.198967 83.428925,102.807259 83.385574,102.415558 
	C80.275383,102.415558 77.165199,102.415558 74.096146,102.415558 
	C74.096146,108.421539 74.096146,113.999542 74.096146,119.937119 
	C77.095085,119.937119 79.724869,119.977386 82.347557,119.859482 
	C82.553902,119.850212 82.710762,118.739738 82.055099,118.017090 
M88.632500,102.088043 
	C87.958771,107.854660 87.285034,113.621284 86.593544,119.539932 
	C90.779884,119.539932 93.692451,119.539932 96.605026,119.539932 
	C96.633247,119.154480 96.661469,118.769020 96.689690,118.383568 
	C94.597748,118.135536 92.505814,117.887505 90.349991,117.631897 
	C90.059044,112.353508 89.780807,107.305611 88.632500,102.088043 
M295.151947,111.360336 
	C295.151947,113.318474 295.151947,115.276604 295.151947,117.594116 
	C293.574829,117.594116 292.441864,117.594116 290.606323,117.594116 
	C293.473633,120.974373 296.771393,121.023087 297.414185,117.823807 
	C298.428986,112.772652 297.684265,107.367973 297.684265,102.112923 
	C296.985687,102.078995 296.287109,102.045059 295.588501,102.011124 
	C295.443054,104.817902 295.297607,107.624687 295.151947,111.360336 
M246.151947,113.381699 
	C246.378983,115.599426 246.606018,117.817154 246.833054,120.034882 
	C247.394852,119.949959 247.956635,119.865036 248.518433,119.780106 
	C248.518433,113.898598 248.518433,108.017090 248.518433,102.135582 
	C247.901901,102.082787 247.285355,102.029991 246.668823,101.977196 
	C246.496597,105.460922 246.324371,108.944649 246.151947,113.381699 
M186.034042,110.522133 
	C186.175323,113.688988 186.316605,116.855843 186.457886,120.022690 
	C189.787048,115.573013 189.431824,104.466278 186.417206,101.335403 
	C186.266693,104.568619 186.150375,107.067505 186.034042,110.522133 
M166.151932,109.573425 
	C166.883347,112.978233 164.640961,117.062454 168.426544,120.957245 
	C168.426544,113.850235 168.426544,107.960754 168.426544,102.071266 
	C167.845673,102.038628 167.264816,102.005989 166.683945,101.973343 
	C166.506683,104.189713 166.329407,106.406075 166.151932,109.573425 
z"/>
<path fill="#040404" opacity="1.000000" stroke="none" 
	d="
M127.556107,62.003292 
	C127.556129,56.378925 127.556129,51.252693 127.556129,45.556824 
	C133.556458,45.556824 139.161819,45.471783 144.763489,45.578861 
	C151.411148,45.705933 155.337906,48.138485 156.640656,52.695007 
	C157.960815,57.312462 155.999771,61.185570 150.166702,65.114220 
	C152.295258,70.148941 154.454575,75.256401 156.793610,80.788971 
	C153.462875,80.788971 150.862671,80.788971 148.016449,80.788971 
	C146.691544,77.437836 145.028503,74.135742 144.094589,70.638901 
	C142.942947,66.326836 140.519684,65.082748 136.012238,66.482117 
	C136.012238,71.015259 136.012238,75.774422 136.012238,80.760635 
	C133.138458,80.760635 130.708893,80.760635 127.556084,80.760635 
	C127.556084,74.680779 127.556084,68.591103 127.556107,62.003292 
M135.998077,57.437565 
	C136.913818,63.166309 141.233948,59.569965 143.831085,59.886017 
	C145.097778,60.040161 147.899704,57.251614 147.869675,55.840557 
	C147.835281,54.224377 145.703384,51.850800 143.986649,51.268223 
	C141.653717,50.476540 138.850388,51.071022 135.997818,51.071022 
	C135.997818,53.206902 135.997818,54.847759 135.998077,57.437565 
z"/>
<path fill="#040404" opacity="1.000000" stroke="none" 
	d="
M219.840210,55.048908 
	C219.840210,51.740578 219.840210,48.923145 219.840210,45.558434 
	C225.586853,45.558434 231.036087,45.501972 236.483658,45.572853 
	C243.158646,45.659702 247.433197,48.007786 248.800247,52.190388 
	C250.354782,56.946590 248.516769,60.850735 242.482544,65.227730 
	C244.607422,70.262489 246.766327,75.377815 248.981415,80.626305 
	C240.470627,81.497749 240.474854,81.496132 237.773499,74.420578 
	C237.300522,73.181709 236.759537,71.968933 236.276871,70.733604 
	C234.363556,65.836594 234.367508,65.835052 228.271164,66.270546 
	C228.271164,70.970329 228.271164,75.717407 228.271164,80.730820 
	C225.394547,80.730820 222.975281,80.730820 219.840210,80.730820 
	C219.840210,72.385765 219.840210,63.962788 219.840210,55.048908 
M232.470032,60.197380 
	C233.294617,60.197205 234.120941,60.161949 234.943466,60.203018 
	C238.233871,60.367321 240.623749,59.155346 240.480988,55.572834 
	C240.342682,52.101925 237.881989,50.921600 234.657455,50.989735 
	C232.584167,51.033546 230.509232,50.997955 228.149872,50.997955 
	C228.149872,53.413700 228.311630,55.222923 228.112610,56.991547 
	C227.801071,59.759865 229.124481,60.504215 232.470032,60.197380 
z"/>
<path fill="#0A0A0A" opacity="1.000000" stroke="none" 
	d="
M68.828125,77.796066 
	C67.732254,84.031448 63.345066,79.244553 60.538406,82.077621 
	C60.538406,69.186638 60.538406,57.654072 60.538406,45.827301 
	C63.182148,45.827301 65.758865,45.827301 68.715378,45.827301 
	C68.715378,50.611893 68.715378,55.193161 68.715378,61.394058 
	C72.246620,57.017681 75.173859,53.994350 77.373344,50.511440 
	C80.142403,46.126583 83.663498,44.533955 89.365929,46.048378 
	C86.899727,48.947487 84.769211,51.779884 82.292908,54.268158 
	C79.947823,56.624592 79.617439,58.662605 81.352516,61.656384 
	C84.894905,67.768616 88.009361,74.128860 91.389915,80.557770 
	C82.536118,81.630341 82.547478,81.624619 79.071579,74.718102 
	C77.450981,71.498032 75.776611,68.305016 74.106079,65.059837 
	C69.494522,68.268936 68.153587,72.396950 68.828125,77.796066 
z"/>
<path fill="#080808" opacity="1.000000" stroke="none" 
	d="
M278.659668,80.775009 
	C278.149475,80.301559 278.043610,79.985184 277.907349,79.682495 
	C276.908142,77.462906 276.343811,73.791626 274.809143,73.326363 
	C271.451141,72.308342 267.587372,72.741753 263.959625,72.998619 
	C263.153839,73.055672 262.310913,74.753868 261.767303,75.837936 
	C260.963684,77.440552 260.412567,79.169807 259.759644,80.830582 
	C257.460754,80.830582 255.333374,80.830582 252.536942,80.830582 
	C256.829926,68.843430 260.989960,57.227497 265.087158,45.787067 
	C265.817627,45.675987 266.144348,45.592026 266.473480,45.581268 
	C274.374847,45.323090 274.377838,45.323467 277.068085,52.898766 
	C280.330841,62.086006 283.587921,71.275246 287.015900,80.938431 
	C283.987213,80.938431 281.518585,80.938431 278.659668,80.775009 
M272.295227,62.381691 
	C271.381775,59.841446 270.468353,57.301197 269.093475,53.477810 
	C267.279907,58.407970 265.910645,62.130325 264.248138,66.649796 
	C266.966278,66.649796 268.894073,66.593178 270.817352,66.662598 
	C273.978790,66.776703 273.339722,64.971428 272.295227,62.381691 
z"/>
<path fill="#080808" opacity="1.000000" stroke="none" 
	d="
M338.888519,62.110226 
	C341.090515,68.393822 343.170258,74.302643 345.260223,80.240448 
	C337.690247,82.017181 337.616211,81.864471 334.803833,75.586632 
	C334.247742,74.345352 332.404266,73.282150 330.962402,72.935333 
	C329.078827,72.482277 326.984558,72.999908 325.016205,72.781647 
	C322.271942,72.477341 320.876495,73.439774 319.985901,76.149551 
	C318.260284,81.400108 318.087280,81.343246 311.148865,80.578407 
	C314.784241,70.397888 318.598999,60.420082 321.847992,50.261311 
	C323.106232,46.327122 325.004700,45.182537 328.925781,45.424442 
	C331.761627,45.599396 333.417816,46.092842 334.267426,49.119743 
	C335.471069,53.408058 337.239319,57.537888 338.888519,62.110226 
M324.432037,61.911957 
	C323.978058,63.278519 323.524109,64.645081 322.992767,66.244514 
	C326.192749,66.244514 328.994934,66.244514 332.253632,66.244514 
	C330.658081,61.907288 329.252106,58.085358 327.567383,53.505657 
	C326.437500,56.620579 325.603729,58.919186 324.432037,61.911957 
z"/>
<path fill="#080808" opacity="1.000000" stroke="none" 
	d="
M182.476349,72.762253 
	C186.185638,73.739891 189.590652,74.805389 193.039444,74.973701 
	C194.204010,75.030533 196.087357,72.980652 196.473846,71.572823 
	C196.701630,70.743027 194.856339,68.776199 193.556732,68.213013 
	C190.836060,67.034019 187.829025,66.537193 184.994720,65.594505 
	C179.649475,63.816696 176.797226,60.223827 176.835007,55.540451 
	C176.873077,50.821468 179.778900,47.383938 185.193115,45.653004 
	C191.888596,43.512444 199.094833,45.508251 203.243820,50.846806 
	C201.827667,51.943565 200.411163,53.040607 200.156921,53.237511 
	C195.433136,52.374771 191.880142,51.440323 188.286789,51.243942 
	C187.211670,51.185192 185.260818,53.092575 185.111343,54.276020 
	C184.973541,55.367069 186.462234,57.276386 187.678009,57.804737 
	C190.703049,59.119362 193.969376,59.892239 197.159775,60.809742 
	C201.920731,62.178905 204.515869,65.493591 204.679108,70.239197 
	C204.852173,75.269997 202.049896,78.636108 197.326782,80.372993 
	C190.928848,82.725784 178.322937,81.293251 175.707260,74.464630 
	C177.851303,73.754791 178.573212,69.201363 182.476349,72.762253 
z"/>
<path fill="#010101" opacity="1.000000" stroke="none" 
	d="
M113.905975,66.147629 
	C110.637299,66.152596 107.839371,66.152596 104.737495,66.152596 
	C104.737495,69.090736 104.737495,71.667397 104.737495,74.689102 
	C110.412605,74.689102 115.990784,74.689102 121.914696,74.689102 
	C122.020622,76.861206 122.106133,78.614555 122.207291,80.688820 
	C113.619980,80.688820 105.202927,80.688820 96.000107,80.688820 
	C96.000107,75.049126 96.000107,69.300461 96.000107,63.551800 
	C96.000107,57.755066 96.000107,51.958336 96.000107,45.870049 
	C104.603188,45.870049 112.849121,45.870049 121.580940,45.870049 
	C121.663841,47.390701 121.749115,48.954967 121.874039,51.246361 
	C116.072670,51.246361 110.534225,51.246361 104.725647,51.246361 
	C104.725647,54.514664 104.725647,57.075241 104.725647,60.048779 
	C108.560638,60.048779 112.148621,60.048779 117.111374,60.048779 
	C115.961731,62.610630 115.169228,64.376640 113.905975,66.147629 
z"/>
<path fill="#080808" opacity="1.000000" stroke="none" 
	d="
M306.455688,48.607082 
	C306.456268,56.043400 306.466248,63.037048 306.453918,70.030647 
	C306.436981,79.649635 303.169556,82.445480 293.474915,81.144684 
	C292.500916,81.014008 291.537811,80.802139 290.250610,80.570549 
	C290.250610,78.564529 290.250610,76.659752 290.250610,74.766136 
	C298.175201,73.838776 298.175446,73.838776 298.175903,65.508087 
	C298.176270,59.050514 298.175964,52.592941 298.175964,45.520580 
	C301.194489,46.791218 305.043060,42.724239 306.455688,48.607082 
z"/>
<path fill="#101010" opacity="1.000000" stroke="none" 
	d="
M164.398254,45.530579 
	C166.635864,45.517345 168.439178,45.517345 170.542450,45.517345 
	C170.542450,57.490219 170.542450,69.030907 170.542450,80.799911 
	C167.818848,80.799911 165.374527,80.799911 162.154144,80.799911 
	C162.154144,74.328407 162.154144,67.893387 162.154160,61.458359 
	C162.154190,57.292088 162.024979,53.119209 162.237305,48.963787 
	C162.296890,47.797432 163.360733,46.682388 164.398254,45.530579 
z"/>
<path fill="#945527" opacity="1.000000" stroke="none" 
	d="
M29.753456,54.143623 
	C29.458832,53.316929 29.164207,52.490238 29.214951,51.103920 
	C29.687222,49.686497 29.814125,48.828693 29.956276,47.648201 
	C29.995113,46.895420 30.018705,46.465336 30.388987,46.084427 
	C32.065365,46.955555 33.454006,48.498093 34.708057,48.395496 
	C35.946354,48.294186 37.048557,46.529408 38.210464,45.494389 
	C38.010937,44.992466 37.811405,44.490543 37.611877,43.988621 
	C35.071419,43.988621 32.530960,43.988621 29.710136,43.853935 
	C28.922503,42.861416 28.415234,42.003586 28.326412,41.151684 
	C36.902042,43.072296 44.543339,41.234200 52.365597,37.961418 
	C53.246643,37.988056 53.749657,38.015785 54.252670,38.043518 
	C52.268742,43.841915 46.520767,42.388905 42.009605,44.656063 
	C41.659397,47.677322 41.247055,51.234592 40.190445,54.816849 
	C39.106941,54.116108 38.667713,53.390373 37.436039,51.355297 
	C37.187366,55.484623 37.023338,58.208420 36.520004,60.990677 
	C34.862225,61.336792 33.543747,61.624443 32.182602,61.494858 
	C31.344439,58.766289 30.548946,56.454956 29.753456,54.143623 
z"/>
<path fill="#949494" opacity="1.000000" stroke="none" 
	d="
M125.976929,118.348602 
	C127.899101,114.066826 129.742645,109.746910 131.789795,105.525742 
	C132.430801,104.203972 133.620316,103.148201 134.558777,101.970688 
	C135.536560,103.096237 136.915405,104.067101 137.419861,105.375191 
	C139.216797,110.034645 140.716278,114.808807 142.328354,119.539551 
	C141.477325,120.197723 140.626297,120.855896 139.775284,121.514069 
	C139.525681,120.403252 139.219070,119.301651 139.037811,118.179787 
	C138.596237,115.446869 136.761520,114.473373 134.412064,115.163116 
	C132.832169,115.626930 131.544128,117.041344 130.080109,117.957947 
	C129.013184,118.625938 127.872177,119.175598 126.365532,119.497826 
	C125.963577,118.927887 125.966927,118.638206 125.976929,118.348602 
z"/>
<path fill="#949494" opacity="1.000000" stroke="none" 
	d="
M256.169189,106.129974 
	C257.343750,104.494568 258.398224,103.234360 259.452698,101.974159 
	C260.389435,103.173935 261.665039,104.239967 262.201050,105.597931 
	C263.994324,110.141434 265.523193,114.789314 267.153351,119.397224 
	C266.662659,119.691650 266.171967,119.986076 265.681274,120.280502 
	C264.543823,118.707939 263.406372,117.135376 262.067505,115.284294 
	C257.701202,113.565773 255.030289,116.271240 253.101501,120.595200 
	C252.633942,120.241020 252.166367,119.886841 251.698807,119.532661 
	C253.148895,115.190170 254.598984,110.847679 256.169189,106.129974 
z"/>
<path fill="#929292" opacity="1.000000" stroke="none" 
	d="
M305.085999,105.044991 
	C306.200287,103.782288 307.195923,102.890366 308.191559,101.998444 
	C308.954895,102.948494 310.023071,103.784363 310.429016,104.868271 
	C312.239807,109.703392 313.861420,114.609360 314.856812,120.086876 
	C311.833374,117.295639 309.980347,112.836693 304.620148,115.650429 
	C303.782349,116.900986 302.646454,118.596527 301.510529,120.292061 
	C301.008972,120.046539 300.507416,119.801025 300.005859,119.555504 
	C301.659698,114.842262 303.313507,110.129021 305.085999,105.044991 
z"/>
<path fill="#929292" opacity="1.000000" stroke="none" 
	d="
M328.475891,112.405182 
	C329.656433,109.251862 330.430298,106.325996 331.805084,103.716751 
	C332.224457,102.920815 335.386841,102.563789 335.454712,102.734901 
	C337.645874,108.259010 339.611572,113.872566 340.916565,119.928558 
	C337.721375,117.325981 336.025970,112.524544 330.422607,115.979439 
	C329.737366,116.968941 328.595825,118.617348 327.454254,120.265762 
	C327.032440,120.036545 326.610626,119.807320 326.188812,119.578102 
	C326.892639,117.303513 327.596436,115.028931 328.475891,112.405182 
z"/>
<path fill="#8B8B8B" opacity="1.000000" stroke="none" 
	d="
M220.885620,106.310715 
	C222.683105,113.823685 220.427200,119.161789 215.245102,119.916481 
	C211.155716,120.512032 207.583496,119.810204 206.030350,115.202568 
	C204.335846,110.175629 205.831467,104.792816 209.555603,102.837296 
	C213.533493,100.748528 217.605240,101.871559 220.885620,106.310715 
M215.724075,104.680550 
	C213.502625,105.437561 209.716415,105.774185 209.377197,107.036873 
	C208.611023,109.888680 209.077850,113.361176 210.071365,116.224373 
	C210.379578,117.112610 215.194016,117.787483 215.863129,116.931786 
	C217.480240,114.863770 218.235748,111.884079 218.593033,109.173637 
	C218.760605,107.902504 217.206360,106.404404 215.724075,104.680550 
z"/>
<path fill="#8B8B8B" opacity="1.000000" stroke="none" 
	d="
M106.673378,119.998260 
	C100.197639,119.797096 97.634773,117.451492 97.290276,111.813431 
	C96.980743,106.747681 99.669319,102.755135 103.872223,102.039223 
	C108.911392,101.180862 112.014839,103.093361 113.270599,107.830963 
	C114.832260,113.722626 112.692497,117.921593 106.673378,119.998260 
M109.065056,105.482857 
	C103.827934,103.014549 100.166504,105.111305 100.119484,110.848160 
	C100.092339,114.159721 100.995346,117.298668 105.004166,117.885941 
	C108.131660,118.344116 110.956818,115.273415 110.882835,111.323616 
	C110.849808,109.559837 110.056541,107.810303 109.065056,105.482857 
z"/>
<path fill="#8B8B8B" opacity="1.000000" stroke="none" 
	d="
M161.500595,114.836708 
	C162.163010,116.540764 162.658325,117.925598 163.153656,119.310432 
	C162.805603,119.606186 162.457550,119.901947 162.109497,120.197708 
	C159.905991,117.324036 157.702484,114.450356 155.498993,111.576683 
	C155.104309,111.814171 154.709641,112.051659 154.314957,112.289146 
	C154.019302,114.863068 153.723648,117.436989 153.427979,120.010910 
	C152.757980,119.987556 152.087982,119.964203 151.417984,119.940842 
	C150.582367,114.189606 151.299301,108.352455 151.025070,101.995682 
	C153.586273,101.995682 155.548096,101.826714 157.470444,102.030273 
	C161.691589,102.477226 163.854660,106.252991 161.161255,109.482704 
	C159.188644,111.848114 160.750793,112.887184 161.500595,114.836708 
M157.819366,109.411278 
	C158.079849,107.994110 158.982651,106.177109 158.419586,105.272614 
	C157.860214,104.374039 155.826538,104.393242 153.598419,103.777603 
	C154.690201,106.673187 151.902802,110.427605 157.819366,109.411278 
z"/>
<path fill="#8B8B8B" opacity="1.000000" stroke="none" 
	d="
M231.053925,105.288376 
	C232.180969,99.338516 236.384277,102.068443 238.904251,102.548256 
	C240.227158,102.800156 242.268494,107.440529 241.705215,108.075104 
	C238.683731,111.478912 241.432098,113.972748 242.280029,116.780266 
	C242.548737,117.669907 242.779190,118.571098 243.027145,119.466995 
	C242.667511,119.721230 242.307877,119.975464 241.948242,120.229698 
	C239.872360,117.349037 237.796494,114.468376 235.720627,111.587715 
	C235.282990,111.772827 234.845367,111.957947 234.407730,112.143059 
	C234.046127,114.786209 233.684525,117.429359 233.322937,120.072510 
	C232.565735,120.052460 231.808548,120.032417 231.051361,120.012367 
	C231.051361,115.259651 231.051361,110.506935 231.053925,105.288376 
M233.955597,107.426201 
	C234.792496,108.242554 235.629379,109.058899 236.466278,109.875252 
	C237.349258,108.910034 238.914795,107.949326 238.921204,106.978310 
	C238.927490,106.027214 237.346024,105.065636 236.461426,104.108658 
	C235.625992,104.930359 234.790573,105.752060 233.955597,107.426201 
z"/>
<path fill="#8F8F8F" opacity="1.000000" stroke="none" 
	d="
M273.093445,116.597557 
	C278.133606,118.533676 279.882843,117.442375 280.013916,112.605850 
	C280.108551,109.114128 280.032379,105.617767 280.032379,102.123474 
	C280.602051,102.038048 281.171753,101.952621 281.741425,101.867203 
	C282.144775,102.698112 282.856262,103.514641 282.895844,104.362541 
	C283.034821,107.339172 283.100525,110.337250 282.900146,113.307350 
	C282.618011,117.488983 280.643005,120.074928 276.016968,120.074532 
	C271.451508,120.074142 269.289215,117.680847 269.090240,113.400902 
	C268.915131,109.633438 269.053619,105.851395 269.053619,102.075790 
	C269.790009,102.043060 270.526428,102.010338 271.262817,101.977615 
	C271.779541,106.749733 272.296295,111.521843 273.093445,116.597557 
z"/>
<path fill="#8F8F8F" opacity="1.000000" stroke="none" 
	d="
M200.189117,108.280556 
	C200.197586,110.133438 200.059921,111.895859 200.754990,113.221733 
	C201.882858,115.373215 203.556519,117.238579 204.999771,119.224739 
	C204.578751,119.640633 204.157715,120.056534 203.736694,120.472427 
	C201.313843,117.908829 198.891006,115.345230 196.133820,112.427872 
	C195.989426,115.148788 195.864731,117.498657 195.724655,120.138351 
	C192.305008,117.986816 191.999207,105.162788 195.368210,101.439682 
	C195.721039,104.114845 195.997375,106.210037 196.324631,108.691269 
	C198.690918,106.184708 200.870148,103.876289 203.049362,101.567871 
	C203.501221,101.971832 203.953079,102.375793 204.404938,102.779755 
	C203.075592,104.517868 201.746231,106.255974 200.189117,108.280556 
z"/>
<path fill="#8F8F8F" opacity="1.000000" stroke="none" 
	d="
M60.821152,119.844131 
	C58.318100,116.339661 58.449898,104.942169 61.331932,101.165970 
	C61.701607,104.071777 61.969349,106.176346 62.310440,108.857498 
	C63.699474,107.263901 64.787750,105.902725 65.998451,104.660904 
	C67.023232,103.609787 68.189697,102.696800 69.293465,101.722687 
	C69.658508,102.064064 70.023552,102.405441 70.388596,102.746819 
	C68.603500,105.175217 66.818413,107.603615 64.743294,110.426567 
	C66.732185,113.258598 68.797874,116.199974 70.923569,119.226799 
	C68.797516,119.438408 68.797516,119.438408 62.425789,112.695038 
	C62.019924,115.118286 61.630619,117.442673 60.821152,119.844131 
z"/>
<path fill="#AD6225" opacity="1.000000" stroke="none" 
	d="
M36.264782,142.074661 
	C36.494759,142.548447 36.724735,143.022232 36.507744,143.775543 
	C35.048100,144.054062 34.035423,144.053055 32.926056,143.789612 
	C32.867802,142.641251 32.906235,141.755341 33.044231,140.541458 
	C33.080498,128.477936 33.017200,116.742393 33.024700,104.783157 
	C33.095493,104.559464 33.183491,104.098511 33.508469,104.068581 
	C34.483990,104.062950 35.134537,104.087242 35.818520,104.428955 
	C35.905872,105.168564 35.959785,105.590759 35.999439,106.480347 
	C35.656384,113.734085 35.081234,120.520439 35.081196,127.306786 
	C35.081165,132.229416 35.842785,137.152039 36.264782,142.074661 
z"/>
<path fill="#6D3316" opacity="1.000000" stroke="none" 
	d="
M30.042297,46.035248 
	C30.018705,46.465336 29.995113,46.895420 29.740231,47.657501 
	C29.508938,47.989498 29.075264,47.997620 29.075264,47.997620 
	C28.950455,47.520283 28.902832,46.663620 28.689720,46.620251 
	C19.984364,44.848888 20.956636,36.270885 17.663271,30.750284 
	C16.961647,29.574165 17.712320,27.531662 17.785572,26.056309 
	C20.139677,28.764866 22.017336,30.925240 24.019966,33.807976 
	C24.615952,35.106728 25.086969,35.683117 25.437145,36.552410 
	C25.588551,37.839390 25.860796,38.833462 26.205219,40.087410 
	C26.575813,40.525238 26.874226,40.703194 27.360077,40.937279 
	C27.547514,40.993408 27.907965,41.145756 27.907965,41.145756 
	C28.415234,42.003586 28.922503,42.861416 29.719109,44.194954 
	C30.019730,45.125526 30.031013,45.580387 30.042297,46.035248 
z"/>
<path fill="#7D3A16" opacity="1.000000" stroke="none" 
	d="
M52.933666,28.832298 
	C55.197979,27.325987 57.624516,26.012468 59.692272,24.272564 
	C63.788647,20.825706 67.686920,17.143414 72.048462,13.214913 
	C72.009972,19.952955 68.273254,24.846355 64.394341,29.936033 
	C64.052719,30.051094 63.969810,29.972082 63.968868,29.598557 
	C62.206692,24.888208 60.067245,27.637920 57.639542,28.946667 
	C55.862534,29.372702 54.452812,29.758951 53.015381,29.817001 
	C52.969666,29.269968 52.951664,29.051132 52.933666,28.832298 
z"/>
<path fill="#8B8B8B" opacity="1.000000" stroke="none" 
	d="
M180.214966,119.558807 
	C177.380615,119.733818 174.916290,119.733818 172.451950,119.733818 
	C172.465851,119.130463 172.479752,118.527115 172.493652,117.923759 
	C174.018997,117.923759 175.610489,118.191910 177.048386,117.837273 
	C178.159561,117.563217 179.657837,116.670395 179.913467,115.754021 
	C180.151398,114.901093 179.190323,113.427361 178.363602,112.640198 
	C177.443100,111.763763 175.718369,111.629158 174.990631,110.677124 
	C173.884460,109.230042 172.603561,107.276688 172.777512,105.689697 
	C172.921371,104.377480 174.894791,102.650467 176.364075,102.259682 
	C178.075912,101.804413 180.121170,102.602821 182.021729,102.857193 
	C181.978485,103.283905 181.935226,103.710625 181.891968,104.137344 
	C179.632599,104.493767 177.373215,104.850189 174.649368,105.279877 
	C176.797485,110.753647 188.693542,111.016167 180.214966,119.558807 
z"/>
<path fill="#E6BB6A" opacity="1.000000" stroke="none" 
	d="
M36.578529,141.844116 
	C35.842785,137.152039 35.081165,132.229416 35.081196,127.306786 
	C35.081234,120.520439 35.656384,113.734085 36.325333,106.475685 
	C37.098827,106.030914 37.532166,106.058197 37.974609,106.500015 
	C38.004936,108.296684 38.026157,109.678825 38.047379,111.060966 
	C38.076332,119.849785 38.160164,128.639130 38.078037,137.426910 
	C38.064960,138.826035 37.306263,140.218201 36.578529,141.844116 
z"/>
<path fill="#8B8B8B" opacity="1.000000" stroke="none" 
	d="
M324.199829,103.087814 
	C325.065033,102.503662 325.758453,102.247818 326.928192,101.816223 
	C324.771790,108.093994 322.797882,113.840477 320.734863,119.846451 
	C318.857025,114.125061 316.936493,108.273598 315.015991,102.422134 
	C315.369904,102.194305 315.723846,101.966476 316.077759,101.738647 
	C317.631989,104.107162 319.186218,106.475685 321.029144,109.284157 
	C322.122192,107.145378 323.075134,105.280754 324.199829,103.087814 
z"/>
<path fill="#828282" opacity="1.000000" stroke="none" 
	d="
M82.472855,118.079071 
	C82.710762,118.739738 82.553902,119.850212 82.347557,119.859482 
	C79.724869,119.977386 77.095085,119.937119 74.096146,119.937119 
	C74.096146,113.999542 74.096146,108.421539 74.096146,102.415558 
	C77.165199,102.415558 80.275383,102.415558 83.385574,102.415558 
	C83.428925,102.807259 83.472275,103.198967 83.515633,103.590668 
	C81.267700,103.832108 79.019775,104.073547 76.542091,104.339668 
	C76.542091,106.128952 76.542091,107.723091 76.542091,109.569061 
	C78.590607,109.875221 80.556305,110.168999 82.522003,110.462784 
	C82.531700,110.826042 82.541397,111.189308 82.551094,111.552567 
	C80.722969,111.790565 78.894844,112.028557 76.678146,112.317139 
	C76.678146,113.976257 76.678146,115.682930 76.678146,118.017090 
	C78.506020,118.017090 80.280563,118.017090 82.472855,118.079071 
z"/>
<path fill="#DFB979" opacity="1.000000" stroke="none" 
	d="
M36.859314,60.932217 
	C37.023338,58.208420 37.187366,55.484623 37.436039,51.355297 
	C38.667713,53.390373 39.106941,54.116108 39.838478,55.022179 
	C40.088551,58.156322 40.046322,61.110130 39.850288,64.899338 
	C39.425377,73.782036 39.154274,81.829330 38.671425,89.920135 
	C38.459686,89.963646 38.026619,89.990730 38.026733,89.550995 
	C37.650959,82.381088 37.275070,75.650932 36.887123,68.479858 
	C36.869812,65.670036 36.864563,63.301128 36.859314,60.932217 
z"/>
<path fill="#5F2E1E" opacity="1.000000" stroke="none" 
	d="
M30.053473,18.933561 
	C27.896976,17.833492 25.804626,16.573666 23.567163,15.675241 
	C20.979147,14.636060 18.758472,13.345854 20.621008,10.309498 
	C21.965162,8.118221 23.961931,5.658441 26.402744,9.670293 
	C26.580587,9.962605 27.831709,9.613079 28.579615,9.525814 
	C28.638092,9.518990 28.663160,9.225848 28.703756,9.065779 
	C29.004030,9.634907 29.314651,10.198869 29.601997,10.774449 
	C29.974991,11.521589 30.329460,12.277977 30.156837,13.051017 
	C29.694311,13.409856 29.766850,13.748062 29.839386,14.086268 
	C29.839386,14.086268 29.907764,14.075587 29.897964,14.512168 
	C29.919092,16.279236 29.950022,17.609724 30.001392,18.963837 
	C30.021832,18.987463 30.053473,18.933561 30.053473,18.933561 
z"/>
<path fill="#8D3E11" opacity="1.000000" stroke="none" 
	d="
M52.542274,28.871174 
	C52.951664,29.051132 52.969666,29.269968 52.893806,30.048180 
	C52.494671,31.034382 52.189400,31.461208 51.546295,31.923145 
	C49.771244,32.546021 48.334030,33.133785 46.495312,33.793022 
	C39.248535,34.662827 32.403259,35.461166 25.557985,36.259506 
	C25.086969,35.683117 24.615952,35.106728 24.112804,34.140060 
	C26.074980,33.747391 28.069288,33.745007 30.850401,33.834938 
	C32.814411,33.676193 33.991619,33.425129 35.161762,33.111759 
	C35.154701,33.049458 35.258392,33.119984 35.566513,33.169426 
	C36.271690,33.115170 36.668743,33.011467 37.065800,32.907764 
	C42.094158,31.575193 47.122520,30.242622 52.542274,28.871174 
z"/>
<path fill="#BC8C4B" opacity="1.000000" stroke="none" 
	d="
M29.587196,54.515869 
	C30.548946,56.454956 31.344439,58.766289 32.118721,61.876350 
	C32.068653,63.442459 32.039795,64.209839 31.696579,65.260048 
	C31.212729,74.383324 31.043236,83.223778 30.648941,92.039497 
	C30.424141,92.014763 29.974079,91.969688 29.949039,91.512764 
	C29.636396,87.031639 29.348795,83.007431 29.061192,78.983231 
	C29.181107,70.951523 29.301022,62.919819 29.587196,54.515869 
z"/>
<path fill="#8B8B8B" opacity="1.000000" stroke="none" 
	d="
M89.067535,102.172882 
	C89.780807,107.305611 90.059044,112.353508 90.349991,117.631897 
	C92.505814,117.887505 94.597748,118.135536 96.689690,118.383568 
	C96.661469,118.769020 96.633247,119.154480 96.605026,119.539932 
	C93.692451,119.539932 90.779884,119.539932 86.593544,119.539932 
	C87.285034,113.621284 87.958771,107.854660 89.067535,102.172882 
z"/>
<path fill="#8B8B8B" opacity="1.000000" stroke="none" 
	d="
M125.555588,118.195564 
	C125.966927,118.638206 125.963577,118.927887 125.971733,119.434662 
	C123.212311,119.798416 120.448021,119.945152 117.328606,120.110741 
	C117.328606,113.831345 117.328606,108.024796 117.328606,102.218239 
	C117.930779,102.139679 118.532959,102.061111 119.135132,101.982544 
	C119.365662,104.354172 119.699974,106.721443 119.799591,109.098549 
	C119.915741,111.869904 119.826714,114.649857 119.826714,117.687927 
	C121.915512,117.827477 123.524887,117.935005 125.555588,118.195564 
z"/>
<path fill="#8F8F8F" opacity="1.000000" stroke="none" 
	d="
M295.152039,110.895905 
	C295.297607,107.624687 295.443054,104.817902 295.588501,102.011124 
	C296.287109,102.045059 296.985687,102.078995 297.684265,102.112923 
	C297.684265,107.367973 298.428986,112.772652 297.414185,117.823807 
	C296.771393,121.023087 293.473633,120.974373 290.606323,117.594116 
	C292.441864,117.594116 293.574829,117.594116 295.151947,117.594116 
	C295.151947,115.276604 295.151947,113.318474 295.152039,110.895905 
z"/>
<path fill="#A96B40" opacity="1.000000" stroke="none" 
	d="
M29.974079,91.969688 
	C29.974079,91.969688 30.424141,92.014763 30.674980,92.501503 
	C30.970083,107.054100 30.944109,121.120949 31.141493,135.184662 
	C31.168201,137.087646 32.315983,138.974899 32.944668,140.869446 
	C32.906235,141.755341 32.867802,142.641251 32.580162,143.803802 
	C31.640207,144.072861 30.949457,144.065262 30.258705,144.057663 
	C30.041544,131.078812 29.824383,118.099953 29.743761,104.272476 
	C29.701658,101.591362 29.523014,99.758865 29.344370,97.926376 
	C29.316856,96.899651 29.289341,95.872925 29.464685,94.248291 
	C29.769722,93.090149 29.871901,92.529922 29.974079,91.969688 
z"/>
<path fill="#8F8F8F" opacity="1.000000" stroke="none" 
	d="
M246.152039,112.905037 
	C246.324371,108.944649 246.496597,105.460922 246.668823,101.977196 
	C247.285355,102.029991 247.901901,102.082787 248.518433,102.135582 
	C248.518433,108.017090 248.518433,113.898598 248.518433,119.780106 
	C247.956635,119.865036 247.394852,119.949959 246.833054,120.034882 
	C246.606018,117.817154 246.378983,115.599426 246.152039,112.905037 
z"/>
<path fill="#8F8F8F" opacity="1.000000" stroke="none" 
	d="
M186.034058,110.044266 
	C186.150375,107.067505 186.266693,104.568619 186.417206,101.335403 
	C189.431824,104.466278 189.787048,115.573013 186.457886,120.022690 
	C186.316605,116.855843 186.175323,113.688988 186.034058,110.044266 
z"/>
<path fill="#8F8F8F" opacity="1.000000" stroke="none" 
	d="
M166.152039,109.097931 
	C166.329407,106.406075 166.506683,104.189713 166.683945,101.973343 
	C167.264816,102.005989 167.845673,102.038628 168.426544,102.071266 
	C168.426544,107.960754 168.426544,113.850235 168.426544,120.957245 
	C164.640961,117.062454 166.883347,112.978233 166.152039,109.097931 
z"/>
<path fill="#AB7E53" opacity="1.000000" stroke="none" 
	d="
M38.883171,89.876617 
	C39.154274,81.829330 39.425377,73.782036 39.860554,65.345673 
	C40.329762,66.447998 40.931244,67.947273 40.891880,69.429520 
	C40.638466,78.971565 40.244839,88.509880 39.555542,98.508270 
	C38.847950,98.960693 38.482067,98.954277 38.095249,98.624329 
	C38.076767,97.867516 38.079216,97.434235 38.349224,96.714333 
	C38.705578,94.244019 38.794376,92.060318 38.883171,89.876617 
z"/>
<path fill="#7D3A16" opacity="1.000000" stroke="none" 
	d="
M30.208555,144.461517 
	C30.949457,144.065262 31.640207,144.072861 32.676849,144.066254 
	C34.035423,144.053055 35.048100,144.054062 36.440868,144.043900 
	C36.867115,144.362350 36.988529,144.701675 36.947399,145.020004 
	C36.647758,147.339066 38.623116,151.029312 34.097454,150.986511 
	C30.234335,150.949966 29.877831,147.945358 30.208555,144.461517 
z"/>
<path fill="#A96B40" opacity="1.000000" stroke="none" 
	d="
M51.884132,31.888039 
	C52.189400,31.461208 52.494671,31.034382 52.921516,30.376377 
	C54.452812,29.758951 55.862534,29.372702 57.756836,29.241425 
	C58.862209,30.344946 59.483002,31.193495 59.943398,32.327072 
	C59.092110,33.490788 58.401218,34.369480 57.710327,35.248169 
	C57.336735,35.890018 56.963142,36.531868 56.280685,36.777397 
	C54.609261,34.883396 53.246696,33.385719 51.884132,31.888039 
z"/>
<path fill="#AB7E53" opacity="1.000000" stroke="none" 
	d="
M51.546295,31.923147 
	C53.246696,33.385719 54.609261,34.883396 55.978348,36.743069 
	C55.573616,37.393105 55.162361,37.681149 54.501888,38.006355 
	C53.749657,38.015785 53.246643,37.988056 52.309074,37.621937 
	C50.215286,36.096218 48.556049,34.908882 46.896816,33.721550 
	C48.334030,33.133785 49.771244,32.546021 51.546295,31.923147 
z"/>
<path fill="#945527" opacity="1.000000" stroke="none" 
	d="
M30.307657,26.983963 
	C30.203074,24.541218 30.098488,22.098473 30.023689,19.294643 
	C30.053473,18.933561 30.021832,18.987463 30.245785,18.992737 
	C30.469738,18.998013 30.959425,19.046474 30.976475,19.413517 
	C31.999546,20.528275 33.005569,21.275986 34.023289,22.434788 
	C34.030083,24.216589 34.025177,25.587299 33.792091,26.990772 
	C33.563919,27.023537 33.103420,27.030809 32.753925,27.012974 
	C31.705505,26.991411 31.006582,26.987686 30.307657,26.983963 
z"/>
<path fill="#BE8A67" opacity="1.000000" stroke="none" 
	d="
M38.116180,98.947861 
	C38.482067,98.954277 38.847950,98.960693 39.488182,98.969818 
	C39.412415,102.881416 39.062302,106.790314 38.379784,110.880096 
	C38.026157,109.678825 38.004936,108.296684 37.993084,106.051254 
	C38.040363,103.107933 38.078274,101.027901 38.116180,98.947861 
z"/>
<path fill="#BE8A67" opacity="1.000000" stroke="none" 
	d="
M30.959425,19.046474 
	C30.959425,19.046474 30.469738,18.998013 30.225346,18.969112 
	C29.950022,17.609724 29.919092,16.279236 29.890533,14.545965 
	C31.060400,14.647292 32.227894,15.151402 33.638577,16.208879 
	C33.834122,17.483589 33.786480,18.204931 33.393646,18.945011 
	C32.352108,18.991322 31.655767,19.018898 30.959425,19.046474 
z"/>
<path fill="#D79F4B" opacity="1.000000" stroke="none" 
	d="
M35.168823,33.174061 
	C33.991619,33.425129 32.814411,33.676193 31.280468,33.835358 
	C30.910522,33.125607 30.897316,32.507748 31.214470,31.539436 
	C32.023022,30.792929 32.501209,30.396879 33.338501,30.007763 
	C34.411755,30.042738 35.125908,30.070776 35.991375,30.320858 
	C36.451160,30.716124 36.759624,30.889343 37.068092,31.062561 
	C37.067753,31.472023 37.067413,31.881485 37.066437,32.599358 
	C36.668743,33.011467 36.271690,33.115170 35.399467,32.966133 
	C34.577007,32.601345 34.229706,32.489296 33.882408,32.377247 
	C33.844627,32.496387 33.806847,32.615528 33.769062,32.734669 
	C34.235649,32.881134 34.702236,33.027596 35.168823,33.174061 
z"/>
<path fill="#D3AB8B" opacity="1.000000" stroke="none" 
	d="
M29.949039,91.512764 
	C29.871901,92.529922 29.769722,93.090149 29.477554,93.863190 
	C29.165468,89.353973 29.043375,84.631950 28.991236,79.446579 
	C29.348795,83.007431 29.636396,87.031639 29.949039,91.512764 
z"/>
<path fill="#8D3E11" opacity="1.000000" stroke="none" 
	d="
M33.738838,18.926275 
	C33.786480,18.204931 33.834122,17.483589 33.952255,16.407253 
	C34.730598,19.415575 35.438446,22.778885 35.807777,26.581543 
	C34.986263,26.999929 34.503269,26.978970 34.020271,26.958010 
	C34.025177,25.587299 34.030083,24.216589 34.014435,22.045097 
	C33.908871,20.471634 33.823853,19.698956 33.738838,18.926275 
z"/>
<path fill="#7D3A16" opacity="1.000000" stroke="none" 
	d="
M58.090584,35.140923 
	C58.401218,34.369480 59.092110,33.490788 60.222496,32.175468 
	C61.764599,31.149920 62.867207,30.561001 63.969810,29.972082 
	C63.969810,29.972082 64.052719,30.051094 64.094131,30.090647 
	C62.247307,31.764692 60.359070,33.399185 58.090584,35.140923 
z"/>
<path fill="#5F2E1E" opacity="1.000000" stroke="none" 
	d="
M32.979401,30.000830 
	C32.501209,30.396879 32.023022,30.792929 31.233906,31.228613 
	C30.675552,30.082407 30.428122,28.896568 30.244173,27.347345 
	C31.006582,26.987686 31.705505,26.991411 32.709663,27.340824 
	C33.031883,28.126474 33.048866,28.566437 33.024124,29.253262 
	C32.981400,29.667023 32.980400,29.833927 32.979401,30.000830 
z"/>
<path fill="#AB7E53" opacity="1.000000" stroke="none" 
	d="
M33.065849,29.006401 
	C33.048866,28.566437 33.031883,28.126474 33.059158,27.358660 
	C33.103420,27.030809 33.563919,27.023537 33.792095,26.990772 
	C34.503269,26.978970 34.986263,26.999929 35.831764,27.006367 
	C36.533043,28.106745 36.871826,29.221645 37.139351,30.699554 
	C36.759624,30.889343 36.451160,30.716124 35.848866,30.029068 
	C34.725307,29.345623 33.895580,29.176012 33.065849,29.006401 
z"/>
<path fill="#D3AB8B" opacity="1.000000" stroke="none" 
	d="
M29.216425,98.315422 
	C29.523014,99.758865 29.701658,101.591362 29.739943,103.817886 
	C29.429214,102.376099 29.258846,100.540283 29.216425,98.315422 
z"/>
<path fill="#8D3E11" opacity="1.000000" stroke="none" 
	d="
M28.981760,48.362766 
	C29.075264,47.997620 29.508938,47.989498 29.724983,47.980194 
	C29.814125,48.828693 29.687222,49.686497 29.311672,50.758041 
	C29.004770,50.223824 28.946512,49.475868 28.981760,48.362766 
z"/>
<path fill="#BE8A67" opacity="1.000000" stroke="none" 
	d="
M29.972408,13.871058 
	C29.766850,13.748062 29.694311,13.409856 29.877132,13.111107 
	C30.123470,13.318994 30.114452,13.487421 29.972408,13.871058 
z"/>
<path fill="#F9F9F9" opacity="1.000000" stroke="none" 
	d="
M135.997955,56.963089 
	C135.997818,54.847759 135.997818,53.206902 135.997818,51.071022 
	C138.850388,51.071022 141.653717,50.476540 143.986649,51.268223 
	C145.703384,51.850800 147.835281,54.224377 147.869675,55.840557 
	C147.899704,57.251614 145.097778,60.040161 143.831085,59.886017 
	C141.233948,59.569965 136.913818,63.166309 135.997955,56.963089 
z"/>
<path fill="#F9F9F9" opacity="1.000000" stroke="none" 
	d="
M232.010849,60.197269 
	C229.124481,60.504215 227.801071,59.759865 228.112610,56.991547 
	C228.311630,55.222923 228.149872,53.413700 228.149872,50.997955 
	C230.509232,50.997955 232.584167,51.033546 234.657455,50.989735 
	C237.881989,50.921600 240.342682,52.101925 240.480988,55.572834 
	C240.623749,59.155346 238.233871,60.367321 234.943466,60.203018 
	C234.120941,60.161949 233.294617,60.197205 232.010849,60.197269 
z"/>
<path fill="#E1E1E1" opacity="1.000000" stroke="none" 
	d="
M272.486725,62.750458 
	C273.339722,64.971428 273.978790,66.776703 270.817352,66.662598 
	C268.894073,66.593178 266.966278,66.649796 264.248138,66.649796 
	C265.910645,62.130325 267.279907,58.407970 269.093475,53.477810 
	C270.468353,57.301197 271.381775,59.841446 272.486725,62.750458 
z"/>
<path fill="#E1E1E1" opacity="1.000000" stroke="none" 
	d="
M324.600983,61.564873 
	C325.603729,58.919186 326.437500,56.620579 327.567383,53.505657 
	C329.252106,58.085358 330.658081,61.907288 332.253632,66.244514 
	C328.994934,66.244514 326.192749,66.244514 322.992767,66.244514 
	C323.524109,64.645081 323.978058,63.278519 324.600983,61.564873 
z"/>
<path fill="#BE8A67" opacity="1.000000" stroke="none" 
	d="
M46.495312,33.793018 
	C48.556049,34.908882 50.215286,36.096218 51.931046,37.623032 
	C44.543339,41.234200 36.902042,43.072296 28.326412,41.151684 
	C27.907965,41.145756 27.547514,40.993408 27.236784,40.716896 
	C26.661716,40.236095 26.397379,40.031815 26.133041,39.827534 
	C25.860796,38.833462 25.588551,37.839390 25.437145,36.552414 
	C32.403259,35.461166 39.248535,34.662827 46.495312,33.793018 
z"/>
<path fill="#AD6225" opacity="1.000000" stroke="none" 
	d="
M32.010937,64.977226 
	C32.039795,64.209839 32.068653,63.442459 32.161392,62.293587 
	C33.543747,61.624443 34.862225,61.336792 36.520008,60.990677 
	C36.864563,63.301128 36.869812,65.670036 36.642281,68.811958 
	C36.284981,72.384560 36.060295,75.184288 36.063923,77.983711 
	C36.067608,80.825150 34.659676,81.411713 32.226852,80.290375 
	C32.146439,74.886101 32.078690,69.931664 32.010937,64.977226 
z"/>
<path fill="#8D3E11" opacity="1.000000" stroke="none" 
	d="
M30.388988,46.084427 
	C30.031013,45.580387 30.019730,45.125526 29.999474,44.329643 
	C32.530960,43.988621 35.071419,43.988621 37.611877,43.988621 
	C37.811405,44.490543 38.010937,44.992466 38.210464,45.494389 
	C37.048557,46.529408 35.946354,48.294186 34.708057,48.395496 
	C33.454006,48.498093 32.065365,46.955555 30.388988,46.084427 
z"/>
<path fill="#F9F9F9" opacity="1.000000" stroke="none" 
	d="
M216.078247,104.844849 
	C217.206360,106.404404 218.760605,107.902504 218.593033,109.173637 
	C218.235748,111.884079 217.480240,114.863770 215.863129,116.931786 
	C215.194016,117.787483 210.379578,117.112610 210.071365,116.224373 
	C209.077850,113.361176 208.611023,109.888680 209.377197,107.036873 
	C209.716415,105.774185 213.502625,105.437561 216.078247,104.844849 
z"/>
<path fill="#F9F9F9" opacity="1.000000" stroke="none" 
	d="
M109.336678,105.768578 
	C110.056541,107.810303 110.849808,109.559837 110.882835,111.323616 
	C110.956818,115.273415 108.131660,118.344116 105.004166,117.885941 
	C100.995346,117.298668 100.092339,114.159721 100.119484,110.848160 
	C100.166504,105.111305 103.827934,103.014549 109.336678,105.768578 
z"/>
<path fill="#FEFDFD" opacity="1.000000" stroke="none" 
	d="
M157.447998,109.587875 
	C151.902802,110.427605 154.690201,106.673187 153.598419,103.777603 
	C155.826538,104.393242 157.860214,104.374039 158.419586,105.272614 
	C158.982651,106.177109 158.079849,107.994110 157.447998,109.587875 
z"/>
<path fill="#FEFDFD" opacity="1.000000" stroke="none" 
	d="
M233.955368,106.999985 
	C234.790573,105.752060 235.625992,104.930359 236.461426,104.108658 
	C237.346024,105.065636 238.927490,106.027214 238.921204,106.978310 
	C238.914795,107.949326 237.349258,108.910034 236.466278,109.875252 
	C235.629379,109.058899 234.792496,108.242554 233.955368,106.999985 
z"/>
<path fill="#E6BB6A" opacity="1.000000" stroke="none" 
	d="
M31.696579,65.260048 
	C32.078690,69.931664 32.146439,74.886101 32.146629,80.779938 
	C32.059357,83.682281 31.948256,85.649376 32.037113,87.607384 
	C32.300407,93.409126 32.642578,99.207291 32.953907,105.006859 
	C33.017200,116.742393 33.080498,128.477936 33.044231,140.541458 
	C32.315983,138.974899 31.168201,137.087646 31.141493,135.184662 
	C30.944109,121.120949 30.970083,107.054100 30.899780,92.526237 
	C31.043236,83.223778 31.212729,74.383324 31.696579,65.260048 
z"/>
<path fill="#D79F4B" opacity="1.000000" stroke="none" 
	d="
M33.024700,104.783157 
	C32.642578,99.207291 32.300407,93.409126 32.037113,87.607384 
	C31.948256,85.649376 32.059357,83.682281 32.159294,81.229774 
	C34.659676,81.411713 36.067608,80.825150 36.063923,77.983711 
	C36.060295,75.184288 36.284981,72.384560 36.654343,69.252869 
	C37.275070,75.650932 37.650959,82.381088 38.023048,89.989929 
	C38.040054,92.912712 38.060860,94.956833 38.081665,97.000946 
	C38.079216,97.434235 38.076767,97.867516 38.095249,98.624329 
	C38.078274,101.027901 38.040363,103.107933 37.983982,105.636726 
	C37.532166,106.058197 37.098827,106.030914 36.339592,106.008293 
	C35.959785,105.590759 35.905872,105.168564 35.857307,104.091354 
	C35.425259,102.483292 34.987858,101.530228 34.550457,100.577171 
	C34.251213,100.595093 33.951969,100.613007 33.652721,100.630928 
	C33.496311,101.786789 33.339901,102.942650 33.183487,104.098511 
	C33.183491,104.098511 33.095493,104.559464 33.024700,104.783157 
M35.636929,96.593620 
	C35.999794,93.051872 36.782970,89.450867 35.042809,86.205650 
	C34.424812,86.233917 33.806812,86.262184 33.188816,86.290459 
	C33.188816,90.111038 33.188816,93.931625 33.188816,97.752205 
	C33.879787,97.605003 34.570763,97.457794 35.636929,96.593620 
z"/>
<path fill="#BB7B36" opacity="1.000000" stroke="none" 
	d="
M33.508469,104.068581 
	C33.339901,102.942650 33.496311,101.786789 33.652721,100.630928 
	C33.951969,100.613007 34.251213,100.595093 34.550457,100.577171 
	C34.987858,101.530228 35.425259,102.483292 35.823868,103.773941 
	C35.134537,104.087242 34.483990,104.062950 33.508469,104.068581 
z"/>
<path fill="#945527" opacity="1.000000" stroke="none" 
	d="
M26.205221,40.087410 
	C26.397379,40.031815 26.661716,40.236095 27.049347,40.660763 
	C26.874226,40.703194 26.575813,40.525238 26.205221,40.087410 
z"/>
<path fill="#945527" opacity="1.000000" stroke="none" 
	d="
M63.968868,29.598557 
	C62.867207,30.561001 61.764599,31.149920 60.382896,31.890442 
	C59.483002,31.193495 58.862209,30.344946 58.124123,29.201641 
	C60.067245,27.637920 62.206692,24.888208 63.968868,29.598557 
z"/>
<path fill="#BE8A67" opacity="1.000000" stroke="none" 
	d="
M38.349224,96.714333 
	C38.060860,94.956833 38.040054,92.912712 38.022934,90.429665 
	C38.026619,89.990730 38.459686,89.963646 38.671429,89.920135 
	C38.794376,92.060318 38.705578,94.244019 38.349224,96.714333 
z"/>
<path fill="#AB7E53" opacity="1.000000" stroke="none" 
	d="
M33.393642,18.945011 
	C33.823853,19.698956 33.908871,20.471634 34.002739,21.634007 
	C33.005569,21.275986 31.999546,20.528275 30.976475,19.413517 
	C31.655767,19.018898 32.352108,18.991322 33.393642,18.945011 
z"/>
<path fill="#BE8A67" opacity="1.000000" stroke="none" 
	d="
M33.024124,29.253262 
	C33.895580,29.176012 34.725307,29.345623 35.697548,29.807024 
	C35.125908,30.070776 34.411755,30.042738 33.338501,30.007763 
	C32.980400,29.833927 32.981400,29.667023 33.024124,29.253262 
z"/>
<path fill="#E6BB6A" opacity="1.000000" stroke="none" 
	d="
M35.161762,33.111759 
	C34.702236,33.027596 34.235649,32.881134 33.769062,32.734669 
	C33.806847,32.615528 33.844627,32.496387 33.882408,32.377247 
	C34.229706,32.489296 34.577007,32.601345 35.091347,32.916687 
	C35.258392,33.119984 35.154701,33.049458 35.161762,33.111759 
z"/>
<path fill="#D3AB8B" opacity="1.000000" stroke="none" 
	d="
M35.449333,96.952103 
	C34.570763,97.457794 33.879787,97.605003 33.188816,97.752205 
	C33.188816,93.931625 33.188816,90.111038 33.188816,86.290459 
	C33.806812,86.262184 34.424812,86.233917 35.042809,86.205650 
	C36.782970,89.450867 35.999794,93.051872 35.449333,96.952103 
z"/>
</svg>